<?xml version="1.0" standalone="no"?>
<!DOCTYPE svg PUBLIC "-//W3C//DTD SVG 1.1//EN" "http://www.w3.org/Graphics/SVG/1.1/DTD/svg11.dtd" >
<svg xmlns="http://www.w3.org/2000/svg">
<metadata>Generated by IcoMoon</metadata>
<defs>
<font id="icomoon" horiz-adv-x="1024">
<font-face units-per-em="1024" ascent="960" descent="-64" />
<missing-glyph horiz-adv-x="1024" />
<glyph unicode="&#x20;" horiz-adv-x="512" d="" />
<glyph unicode="&#xe900;" glyph-name="4" d="M428.837 302.080l266.898 361.618c5.458 7.301 14.079 11.976 23.793 11.976 16.36 0 29.623-13.263 29.623-29.623 0-2.353-0.274-4.643-0.793-6.838l0.040 0.201-1.243-4.169-165.157-418.158c-13.61-32.288-44.996-54.541-81.581-54.541-48.758 0-88.283 39.526-88.283 88.283 0 15.228 3.855 29.555 10.644 42.060l-0.231-0.465 2.999 4.901 3.218 4.681 266.971 361.691-266.971-361.618zM590.921 413.989l-110.665-149.943-1.682-2.633c-1.926-3.407-3.060-7.481-3.060-11.82 0-9.126 5.019-17.079 12.446-21.251l0.123-0.063 2.853-1.317c11.045-4.389 23.698-0.073 29.769 10.167l1.755 3.511 68.462 173.349zM516.389 496.274l-52.37-70.875c-55.416-18.522-95.131-68.814-97.709-128.731l-0.010-0.293c-1.118-16.781-15.004-29.969-31.97-29.969-17.693 0-32.037 14.343-32.037 32.037 0 0.225 0.002 0.449 0.007 0.672l-0.001-0.033c2.838 66.247 36.597 124.055 87.122 159.675l0.65 0.434c32.831 23.308 73.725 37.26 117.878 37.26 2.994 0 5.973-0.064 8.936-0.191l-0.423 0.014h-0.146zM694.126 378.807c11.922-25.015 18.578-52.005 19.749-79.579 0.022-0.446 0.035-0.969 0.035-1.494 0-17.653-14.311-31.963-31.963-31.963-11.132 0-20.935 5.691-26.658 14.322l-0.074 0.118 38.985 98.597zM598.894 607.89l-41.399-55.954c-14.894 2.967-32.018 4.665-49.538 4.665-57.113 0-110.012-18.043-153.308-48.74l0.824 0.555c-49.239-34.647-85.706-84.538-102.735-142.731l-0.47-1.873c-3.946-13.527-16.235-23.242-30.793-23.242-17.684 0-32.020 14.336-32.020 32.020 0 3.126 0.448 6.147 1.283 9.003l-0.057-0.226c21.701 74.541 66.928 136.466 126.962 178.798l1.038 0.694c52.734 37.404 118.408 59.793 189.31 59.793 32.353 0 63.618-4.662 93.158-13.35l-2.331 0.588zM748.617 516.681c34.838-36.907 61.328-82.082 76.206-132.249l0.594-2.333c0.605-2.327 0.952-4.998 0.952-7.751 0-17.693-14.343-32.037-32.037-32.037-14.109 0-26.088 9.121-30.362 21.788l-0.066 0.226c-8.843 29.993-21.731 56.157-38.298 79.528l0.556-0.826-4.389 5.851 26.77 67.803h0.073zM681.911 710.29l-3.803-2.267c-5.442-3.663-10.151-7.814-14.266-12.499l-0.070-0.082-4.096-5.12-23.040-31.232c-38.304 13.819-82.508 21.809-128.577 21.809-83.884 0-161.582-26.488-225.185-71.557l1.213 0.816c-62.549-44.050-110.794-104.589-138.857-175.329l-0.919-2.627c-4.776-12.053-16.332-20.422-29.842-20.422-17.681 0-32.015 14.334-32.015 32.015 0 4.171 0.798 8.155 2.249 11.81l-0.076-0.216c33.789 85.439 90.010 155.93 161.457 206.257l1.432 0.957c72.616 51.455 163.029 82.251 260.635 82.251 62.692 0 122.417-12.705 176.741-35.681l-2.98 1.119zM794.039 643.73c60.245-49.275 107.249-112.519 136.34-184.891l1.095-3.086c1.181-3.206 1.865-6.908 1.865-10.77 0-17.693-14.343-32.037-32.037-32.037-13.127 0-24.409 7.895-29.359 19.195l-0.080 0.206c-22.748 57.242-56.512 105.779-98.991 145.021l-0.264 0.241 16.238 41.179c3.218 8.046 4.901 16.53 5.193 24.869z" />
<glyph unicode="&#xe901;" glyph-name="yuanxing1x-1" d="M1024 448q0-25.216-2.56-50.176-2.432-25.088-7.296-49.664-4.864-24.704-12.16-48.768t-16.896-47.36q-9.728-23.168-21.504-45.44-11.904-22.144-25.856-43.008-14.080-20.992-29.952-40.448-16-19.328-33.792-37.12-17.792-17.92-37.12-33.792-19.456-16-40.448-29.952-20.864-14.080-43.008-25.856-22.272-11.776-45.44-21.504-23.296-9.6-47.36-16.896t-48.64-12.16q-24.704-4.864-49.792-7.424-24.96-2.432-50.176-2.432t-50.176 2.56q-25.088 2.432-49.664 7.296-24.704 4.864-48.768 12.16t-47.36 16.896q-23.168 9.728-45.44 21.504-22.144 11.904-43.008 25.856-20.992 14.080-40.448 29.952-19.328 16-37.12 33.792-17.92 17.792-33.792 37.12-16 19.456-29.952 40.448-14.080 20.864-25.856 43.008-11.776 22.272-21.504 45.568-9.472 23.168-16.896 47.36-7.296 24.064-12.16 48.64-4.864 24.704-7.424 49.792-2.432 24.832-2.432 50.048t2.56 50.176q2.432 25.088 7.296 49.664 4.864 24.704 12.16 48.768t16.896 47.36q9.728 23.168 21.504 45.44 11.904 22.144 25.856 43.008 14.080 20.992 29.952 40.448 16 19.328 33.792 37.12 17.792 17.92 37.12 33.792 19.456 16 40.448 29.952 20.864 14.080 43.008 25.856 22.272 11.776 45.44 21.504 23.296 9.6 47.36 16.896t48.64 12.16q24.704 4.864 49.792 7.424 24.96 2.432 50.176 2.432t50.176-2.56q25.088-2.432 49.664-7.296 24.704-4.864 48.768-12.16t47.36-16.896q23.168-9.728 45.44-21.504 22.144-11.904 43.008-25.856 20.992-14.080 40.448-29.952 19.328-16 37.12-33.792 17.92-17.792 33.792-37.12 16-19.456 29.952-40.448 14.080-20.864 25.856-43.008 11.776-22.272 21.504-45.44 9.6-23.296 16.896-47.36t12.16-48.64q4.864-24.704 7.424-49.792 2.432-24.96 2.432-50.176z" />
<glyph unicode="&#xe902;" glyph-name="4G" d="M711.168 900.288c74.624 0 149.312-29.888 209.024-84.608l39.808 39.808c-63.432 64.306-151.442 104.227-248.778 104.512h-0.054c-89.6 0-179.2-34.88-248.896-104.512l39.808-39.808c59.712 54.72 134.4 84.608 209.088 84.608zM546.88 775.808l39.808-39.808c34.88 34.88 79.68 49.792 124.48 49.792s89.6-14.912 124.48-49.792l39.744 39.808c-41.931 42.443-99.917 68.941-164.094 69.631l-0.13 0.001c-64.33-0.673-122.343-27.175-164.265-69.609l-0.023-0.023zM860.48 462.208h-99.52v199.104h-99.52v-199.104h-497.92c-54.72 0-99.52-44.8-99.52-99.52v-199.168c0-54.72 44.8-99.52 99.52-99.52h696.832c54.72 0 99.52 44.8 99.52 99.52v199.168c-0.073 54.889-44.513 99.374-99.378 99.52h-0.014zM312.832 213.312h-99.52v99.52h99.52v-99.52zM487.168 213.312h-99.52v99.52h99.52v-99.52zM661.312 213.312h-99.52v99.52h99.52v-99.52z" />
<glyph unicode="&#xe903;" glyph-name="G" d="M982.784 620.8c-77.928 173.164-248.943 291.555-447.613 291.584h-0.003c-0.031 0-0.067 0-0.103 0-209.836 0-388.739-132.439-457.68-318.287l-1.097-3.377c-69.888-193.152-12.032-409.728 145.792-540.8l-28.544-113.92 184.576 26.752c47.168-16.762 101.572-26.448 158.238-26.448 142.101 0 269.975 60.912 358.936 158.051l0.33 0.365c79.611 86.51 128.416 202.45 128.416 329.789 0 71.029-15.185 138.511-42.485 199.378l1.238-3.087zM437.632 283.648c-22.4-31.104-54.4-46.592-94.848-46.592-32.768 0-58.624 8.576-79.36 25.856s-32.768 40.576-36.224 69.888l67.328 6.912c1.304-14.304 7.669-26.914 17.265-36.209l0.015-0.015c9.472-8.576 19.84-12.928 32.768-12.928 14.303 0.059 27.029 6.764 35.255 17.185l0.073 0.095c9.472 11.264 14.72 28.416 14.72 51.712 0 21.504-5.12 37.888-14.72 48.256-9.201 10.1-22.408 16.413-37.089 16.413-0.596 0-1.19-0.010-1.781-0.031l0.086 0.002c-18.944 0-36.224-8.576-51.712-25.856l-54.4 8.576 34.56 182.016h177.664v-62.976h-126.848l-10.368-59.52c14.72 7.808 30.208 11.264 45.696 11.264 30.208 0 55.168-11.264 75.904-32.768s31.104-50.048 31.104-84.48c0-28.544-8.704-53.504-25.088-76.8zM828.416 292.224c-14.72-14.72-36.224-26.752-64.64-37.888-25.23-10.366-54.516-16.384-85.208-16.384-0.059 0-0.118 0-0.177 0h0.009c-37.12 0-68.992 7.808-95.744 23.296-27.050 15.096-48.217 37.954-60.82 65.543l-0.364 0.889c-13.090 26.624-20.747 57.951-20.747 91.067 0 0.744 0.004 1.488 0.012 2.23l-0.001-0.113c0 36.224 7.808 68.992 23.296 97.408 15.556 28.236 38.586 50.691 66.445 65.12l0.883 0.416c22.4 11.264 50.048 17.28 83.712 17.28 43.136 0 77.568-9.472 101.76-27.648s40.576-43.136 47.488-75.904l-70.784-13.824c-5.12 17.28-13.824 31.104-27.648 40.576-13.824 10.368-31.104 14.72-50.944 14.72-31.104 0-55.168-9.472-74.24-29.312-18.176-19.84-27.648-48.256-27.648-87.168 0-41.344 9.472-72.448 27.648-93.952 18.176-20.736 43.136-31.104 72.448-31.104 14.72 0 29.312 2.56 44.8 8.576 14.72 6.016 27.648 12.928 37.888 21.504v44.8h-80.256v58.624h152.704v-138.752h0.128z" />
<glyph unicode="&#xe904;" glyph-name="baimingdan" d="M414.528 783.36h188.16c1.534-0.181 3.31-0.285 5.11-0.285 25.414 0 46.016 20.602 46.016 46.016s-20.602 46.016-46.016 46.016c-2.186 0-4.336-0.152-6.441-0.447l0.243 0.028h-187.072c-23.072-2.671-40.815-22.095-40.815-45.664s17.744-42.993 40.602-45.644l0.214-0.020zM804.672 844.16h-93.184c1.024-4.928 1.472-10.048 1.472-15.168 0-38.4-27.712-76.16-60.992-76.16h-286.080c-35.008 0-62.72 37.76-62.72 76.16 0 5.12 0.64 10.24 1.472 15.168h-94.272c-75.776 0-94.528-42.88-94.528-104.96v-613.952c0-66.56 26.688-103.936 100.032-103.936h583.040c73.408 0 109.248 29.248 109.248 103.936v613.952c0 62.080-33.472 104.96-103.488 104.96zM736 202.048h-448c-23.524 0.072-42.579 19.105-42.688 42.614v0.010c0 23.488 19.2 42.688 42.688 42.688h448c23.488 0 42.688-19.2 42.688-42.688 0-23.424-19.2-42.624-42.688-42.624zM736 390.208h-448c-23.524 0.072-42.579 19.105-42.688 42.614v0.010c0 23.488 19.2 42.688 42.688 42.688h448c23.488 0 42.688-19.2 42.688-42.688 0-23.424-19.2-42.624-42.688-42.624zM736 578.368h-448c-23.524 0.072-42.579 19.105-42.688 42.614v0.010c0 23.488 19.2 42.688 42.688 42.688h448c23.488 0 42.688-19.2 42.688-42.688 0-23.424-19.2-42.624-42.688-42.624z" />
<glyph unicode="&#xe905;" glyph-name="bainji" d="M705.82 797.867c-3.094 3.199-5.001 7.564-5.001 12.373s1.907 9.174 5.006 12.378l-0.005-0.005 70.884 75.207c2.852 3.258 7.018 5.304 11.662 5.304s8.811-2.046 11.647-5.286l0.015-0.018 117.646-124.757c3.111-3.202 5.029-7.578 5.029-12.402s-1.918-9.199-5.033-12.406l0.004 0.004-70.94-75.207c-2.86-3.241-7.024-5.274-11.662-5.274s-8.802 2.033-11.648 5.257l-0.015 0.017-117.589 124.814zM390.542 187.278l387.812 411.42c5.86 6.201 5.006 16.839-1.707 22.983l-117.532 125.668c-6.713 7.054-16.725 7.964-21.732 1.707l-388.665-411.307-58.368-212.366 200.192 61.895zM56.889 54.67v-70.827h934.116v70.77h-934.116z" />
<glyph unicode="&#xe906;" glyph-name="banbenshengji" d="M255.744 596.48l-107.52 107.52-45.21-45.261 104.243-104.243c-76.982-77.362-124.57-184.035-124.57-301.822 0-0.199 0-0.397 0-0.595v0.031-42.957h858.624v42.957c0 0.183 0 0.399 0 0.616 0 117.787-47.588 224.459-124.587 301.839l0.017-0.017 104.294 104.243-45.261 45.21-107.469-107.52c-70.406 53.037-159.34 84.941-255.726 84.941-0.204 0-0.409 0-0.613 0h0.032c-0.198 0-0.433 0.001-0.667 0.001-96.326 0-185.209-31.865-256.685-85.628l1.096 0.789zM512 617.421c194.362-0.003 353.275-151.77 364.701-343.262l0.048-1.007h-729.446c11.499 192.459 170.375 344.189 364.695 344.218h0.003zM383.232 466.688c-0.442 0.016-0.961 0.026-1.483 0.026-23.724 0-42.957-19.232-42.957-42.957s19.232-42.957 42.957-42.957c0.521 0 1.041 0.009 1.558 0.028l-0.075-0.002c23.078 0.822 41.474 19.728 41.474 42.931s-18.396 42.109-41.399 42.929l-0.075 0.002zM597.862 423.782c0 23.724 19.232 42.957 42.957 42.957s42.957-19.232 42.957-42.957v0c0-23.724-19.232-42.957-42.957-42.957s-42.957 19.232-42.957 42.957v0z" />
<glyph unicode="&#xe907;" glyph-name="bianji-1" d="M469.312 832c0.493 0.020 1.071 0.032 1.653 0.032 23.576 0 42.688-19.112 42.688-42.688s-19.112-42.688-42.688-42.688c-0.581 0-1.16 0.012-1.735 0.035l0.083-0.003h-256v-597.376h597.376v256l0.256 4.992c2.686 21.226 20.63 37.476 42.369 37.476 23.498 0 42.562-18.987 42.687-42.456v-256.012c0-47.104-38.208-85.312-85.312-85.312h-597.376c-47.117 0-85.312 38.195-85.312 85.312v597.376c0 47.104 38.208 85.312 85.312 85.312h256zM884.032 819.52c16.64-16.64 16.64-43.712 0-60.352l-392.192-392.256c-7.579-6.995-17.746-11.285-28.916-11.285-23.576 0-42.688 19.112-42.688 42.688 0 11.185 4.302 21.366 11.342 28.978l-0.026-0.028 392.192 392.192c16.64 16.64 43.648 16.64 60.288 0z" />
<glyph unicode="&#xe908;" glyph-name="bianji-2" d="M904.485 643.145l-207.579 207.579 45.202 45.275 207.579-207.579-45.202-45.275zM150.967 74.679l231.205 46.226 467.090 467.017-207.579 207.579-467.017-467.017-46.299-231.205c-0.257-1.177-0.404-2.529-0.404-3.915 0-10.584 8.58-19.163 19.163-19.163 1.386 0 2.738 0.147 4.041 0.427l-0.126-0.023zM641.682 705.024l117.029-117.029-408.064-408.137-146.286-29.257 29.257 146.286 408.064 408.137zM960 256h-256v-64h256v64zM960 128h-416.037v-64h416.037v64z" />
<glyph unicode="&#xe909;" glyph-name="bianji" d="M551.488 684.864l180.48-185.28-451.904-464h-180.48v185.216l451.84 464zM603.008 737.792l104.192 107.008c9.383 9.647 22.489 15.633 36.992 15.633s27.609-5.985 36.981-15.621l0.011-0.012 108.416-111.36c9.073-9.289 14.671-22.007 14.671-36.032s-5.597-26.743-14.68-36.042l-106.038-108.918-180.48 185.344zM533.248 138.688h339.648c28.489 0 51.584-23.095 51.584-51.584s-23.095-51.584-51.584-51.584v0h-391.232c-16.669 0.019-30.175 13.536-30.175 30.208 0 8.35 3.387 15.908 8.863 21.376v0l36.48 36.48c9.334 9.332 22.229 15.104 36.471 15.104 0.003 0 0.006 0 0.010 0h-0.064z" />
<glyph unicode="&#xe90a;" glyph-name="bianji-21" d="M206.409 302.299l-60.123-251.392 219.282 69.778 346.331 395.191-161.134 179.566-344.357-393.143zM685.641 849.262l-86.309-98.523 161.646-178.834 83.822 95.525c43.959 50.176 43.959 131.584 0 181.76-43.886 50.103-115.2 50.103-159.086 0z" />
<glyph unicode="&#xe90b;" glyph-name="Button-" d="M561.28 590.72l29.408-29.44-113.28-113.28 113.28-113.28-29.44-29.44-142.688 142.72 142.72 142.72z" />
<glyph unicode="&#xe90c;" glyph-name="caozuo" d="M206.409 302.299l-60.123-251.392 219.282 69.778 346.331 395.191-161.134 179.566-344.357-393.143zM685.641 849.262l-86.309-98.523 161.646-178.834 83.822 95.525c43.959 50.176 43.959 131.584 0 181.76-43.886 50.103-115.2 50.103-159.086 0z" />
<glyph unicode="&#xe90d;" glyph-name="chakan-1" d="M228.352 724.992l60.288-60.352c-65.92-50.56-128.384-123.584-188.288-216.64 123.52-191.936 257.792-298.688 411.648-298.688 76.352 0 147.904 26.304 215.68 76.288l60.48-60.48c-87.36-67.392-179.392-101.12-276.16-101.12-188.48 0-359.168 128-512 384 72.128 120.832 148.288 213.12 228.352 276.992zM512 832c188.48 0 359.168-128 512-384-40.32-67.584-81.92-126.272-124.8-176-37.312-43.392-99.2 13.888-60.16 60.16 30.656 36.8 58.88 75.52 84.608 115.84-123.52 191.936-257.792 298.688-411.648 298.688-23.68 0-44.8-2.112-69.76-7.552-60.288-13.184-78.656 69.376-22.080 82.432 30.080 6.912 60.928 10.432 91.84 10.432zM392.32 569.664l60.352-60.288c-15.44-15.448-24.989-36.785-24.989-60.352 0-47.15 38.223-85.373 85.373-85.373 23.583 0 44.933 9.562 60.384 25.021v0l60.288-60.288c-30.758-30.145-72.926-48.75-119.438-48.75-94.268 0-170.688 76.42-170.688 170.688 0 46.497 18.592 88.651 48.747 119.435l-0.029-0.029zM12.48 947.52c7.722 7.709 18.384 12.476 30.158 12.476 9.901 0 19.015-3.371 26.256-9.027l-0.094 0.071 4.032-3.52 938.688-938.688c7.563-7.697 12.232-18.259 12.232-29.911 0-23.576-19.112-42.688-42.688-42.688-9.769 0-18.771 3.281-25.965 8.802l0.101-0.075-4.032 3.52-938.688 938.688c-7.72 7.724-12.494 18.392-12.494 30.176s4.774 22.452 12.494 30.176v0z" />
<glyph unicode="&#xe90e;" glyph-name="chakan" d="M1024 448c0-153.6-229.222-384-512-384-74.27 0.281-144.955 15.308-209.383 42.302l3.61-1.342 157.286 157.235c142.029-37.171 271.514 92.365 234.342 234.394l189.542 189.542c84.787-74.752 136.602-165.12 136.602-238.131zM886.323 822.272c5.977-6.007 9.672-14.29 9.672-23.436 0-7.028-2.182-13.546-5.904-18.914l0.072 0.11-3.84-4.557-701.901-701.747c-5.976-5.929-14.206-9.592-23.292-9.592-18.267 0-33.075 14.808-33.075 33.075 0 7.012 2.182 13.515 5.904 18.866l-0.071-0.108 3.84 4.557 701.747 701.85c5.984 5.977 14.247 9.673 23.373 9.673s17.389-3.696 23.373-9.673v0h0.102zM512 832c73.216 0 142.797-15.411 205.773-40.96l-157.286-157.235c-141.926 37.12-271.36-92.262-234.342-234.24l-189.645-189.645c-84.736 74.701-136.499 165.12-136.499 238.080 0 153.6 229.274 384 512 384zM521.626 320.307l117.914 118.067c-4.869-63.099-54.832-113.114-117.47-118.039l-0.444-0.028zM502.374 575.693l-117.965-118.118c4.897 63.093 54.877 113.091 117.523 117.988l0.442 0.028v0.102z" />
<glyph unicode="&#xe90f;" glyph-name="chakan-2" d="M576.512 29.824h-413.44c-52.864 0-96 43.072-96 96v672c0 52.864 43.136 96 96 96h672c52.928 0 96-43.136 96-96v-414.784c0-17.673-14.327-32-32-32s-32 14.327-32 32v0 414.72c0 17.664-14.336 32-32 32h-672c-17.536 0-32-14.336-32-32v-672c0-17.536 14.464-32 32-32h413.44c17.673 0 32-14.327 32-32s-14.327-32-32-32v0zM692.416 637.696h-446.72c-17.673 0-32 14.327-32 32s14.327 32 32 32v0h446.72c17.673 0 32-14.327 32-32s-14.327-32-32-32v0zM388.48 429.76h-142.72c-17.673 0-32 14.327-32 32s14.327 32 32 32v0h142.72c0.009 0 0.021 0 0.032 0 17.673 0 32-14.327 32-32 0-17.662-14.309-31.982-31.966-32h-0.002zM388.48 222.016h-142.72c-17.673 0-32 14.327-32 32s14.327 32 32 32v0h142.72c0.009 0 0.021 0 0.032 0 17.673 0 32-14.327 32-32 0-17.662-14.309-31.982-31.966-32h-0.002zM624.128 167.488c-94.967 0.109-171.923 77.065-172.032 172.021v0.011c0.146 94.939 77.088 171.859 172.022 171.968h0.010c94.917-0.146 171.822-77.051 171.968-171.954v-0.014c-0.073-94.959-77.014-171.923-171.958-172.032h-0.010zM624.128 447.488c-58.523-1.47-105.403-49.26-105.403-108s46.88-106.53 105.267-107.997l0.136-0.003c58.523 1.47 105.403 49.26 105.403 108s-46.88 106.53-105.267 107.997l-0.136 0.003zM820.8 95.808l-110.272 110.272c-5.804 5.796-9.394 13.807-9.394 22.656 0 17.683 14.335 32.018 32.018 32.018 8.834 0 16.832-3.577 22.624-9.362v0l110.208-110.272c5.577-5.752 9.016-13.607 9.016-22.265 0-17.673-14.327-32-32-32-8.626 0-16.454 3.413-22.209 8.962l0.010-0.009z" />
<glyph unicode="&#xe910;" glyph-name="chanpinku" d="M296.96 624.5h50.269l38.54-78.755-88.809 78.755zM296.96 250.833h50.269l38.54 102.214-88.809-102.214zM742.679 250.833h-48.593l-40.215 102.214 88.809-102.214zM749.382 624.5h-45.242l-35.188-78.755 80.431 78.755zM162.909 678.121h127.348v-127.348h-127.348v127.348zM749.382 678.121h127.348v-127.348h-127.348v127.348zM749.382 314.508h127.348v-127.348h-127.348v127.348zM162.909 314.508h127.348v-127.348h-127.348v127.348zM459.497 797.091h127.348v-127.348h-127.348v127.348zM459.497 208.943h127.348v-127.348h-127.348v127.348zM256.745 470.342h67.025v-67.025h-67.025v67.025zM352.256 554.124l172.591 97.187 170.915-97.187-170.915-110.592-172.591 110.592zM511.441 222.348l-170.915 122.321v184.32l170.915-110.592v-196.049zM715.869 470.342h67.025v-67.025h-67.025v67.025zM704.14 527.313l-10.054-207.779-150.807-97.187-1.676 199.401 162.537 105.565z" />
<glyph unicode="&#xe911;" glyph-name="chexiao" d="M396.544 824.064l-323.2-323.264c-8.108-8.107-13.123-19.308-13.123-31.68s5.015-23.573 13.123-31.68l323.2-323.264c6.369-6.367 15.167-10.304 24.884-10.304 0.027 0 0.053 0 0.080 0h-0.004l3.84 0.192c17.717 2.001 31.36 16.902 31.36 34.99 0 0.006 0 0.013 0 0.019v-0.001l-0.064 189.056 10.624-0.448c146.112-7.168 278.336-80.256 359.68-196.032l47.36-67.456 10.56 81.792c2.304 17.856 3.456 35.968 3.456 54.144l-0.128 9.792c-5.184 227.968-191.808 412.096-424.64 422.144l-6.912 0.256v166.848c0 0.003 0 0.008 0 0.012 0 19.44-15.76 35.2-35.2 35.2-9.723 0-18.525-3.942-24.896-10.316v0zM392.704 729.6v-163.008l33.344 1.408c5.76 0.256 11.584 0.384 17.408 0.384l9.728-0.064c189.888-4.608 345.024-143.552 368.192-321.92l1.088-10.304-2.432 2.56c-96.353 94.994-228.743 153.657-374.834 153.657-7.635 0-15.233-0.16-22.79-0.478l1.080 0.036-30.848-1.152v-182.208l-260.48 260.608 260.48 260.544z" />
<glyph unicode="&#xe912;" glyph-name="cpu" d="M775.509 940.828c126.635 0 229.262-104.846 229.262-234.098v-517.461c0-129.252-102.628-234.041-229.262-234.041h-526.962c-126.692 0-229.319 104.789-229.319 234.041v517.461c0 129.252 102.628 234.098 229.319 234.098h526.962zM775.509 859.705h-526.962c-80.782 0-146.603-65.422-149.504-147.228l-0.171-5.746v-517.461c0-82.603 64.057-149.845 144.043-152.86l5.689-0.114h526.905c80.782 0 146.546 65.422 149.504 147.285l0.114 5.689v517.461c0 82.603-64 149.845-144.043 152.86l-5.632 0.114zM304.071 382.521c-12.288-28.444-28.786-31.744-40.107-31.744-0.322-0.011-0.7-0.017-1.080-0.017-6.724 0-12.996 1.934-18.29 5.277l0.141-0.083c-5.377 2.762-9.839 6.605-13.238 11.272l-0.074 0.106c-4.034 5.075-6.783 11.34-7.661 18.191l-0.019 0.184c-1.252 6.258-2.731 21.049-2.731 55.182 0 34.247 1.479 49.266 2.844 55.979 0.921 6.742 3.603 12.731 7.563 17.647l-0.054-0.069 0.683 0.853c3.444 4.591 7.753 8.337 12.708 11.047l0.205 0.103c5.44 2.848 11.879 4.529 18.709 4.551h0.007c10.24-0.171 18.66-3.129 25.202-8.647 7.168-6.599 11.89-14.393 14.564-23.723l2.788-9.614h69.234l-2.844 15.929c-4.602 26.883-17.218 50.246-35.263 68.145l-0.008 0.008c-19.001 18.603-43.577 28.217-73.444 28.501-24.064-0.284-44.601-6.656-60.928-18.716-14.861-10.249-26.85-23.621-35.208-39.229l-0.29-0.593c-4.949-8.476-8.533-19.058-10.809-32.37-1.991-12.288-3.015-35.1-3.015-69.746 0-34.133 1.024-56.889 2.958-69.348 1.771-11.93 5.442-22.68 10.723-32.431l-0.256 0.516c7.509-15.36 19.627-28.9 35.726-40.164 16.441-12.231 36.978-18.66 61.212-19.228 26.567 0 50.062 8.192 69.916 24.519 18.944 16.27 31.858 39.538 38.514 69.177l3.698 16.498h-68.551l-3.527-7.964zM553.813 498.404c0-0.063 0.001-0.137 0.001-0.211 0-9.021-3.2-17.294-8.528-23.746l0.051 0.063c-5.404-6.713-13.767-10.126-25.259-10.297h-49.721v68.21h48.469c0.453 0.018 0.984 0.029 1.518 0.029 8.108 0 15.653-2.409 21.958-6.551l-0.152 0.093c3.413-1.991 6.258-4.892 8.192-8.363 2.276-4.949 3.413-11.378 3.413-19.228zM587.833 578.162c-10.272 8.894-22.583 15.738-36.115 19.736l-0.692 0.175c-10.389 2.243-22.324 3.527-34.559 3.527-0.070 0-0.141 0-0.211 0h-115.474v-321.308h69.575v114.802h51.655c32.996 0.569 58.596 12.004 76.174 33.963 15.575 18.218 25.061 42.046 25.088 68.090v0.006c0 18.204-3.413 34.361-9.899 47.616-5.777 13.455-14.505 24.684-25.419 33.257l-0.181 0.137zM802.247 601.6v-201.671c-0.171-16.384-4.096-28.16-12.004-36.181-7.47-7.672-17.899-12.432-29.439-12.432-0.55 0-1.098 0.011-1.643 0.032l0.078-0.002c-0.466-0.019-1.012-0.030-1.561-0.030-11.542 0-21.943 4.882-29.252 12.694l-0.021 0.023c-8.021 7.908-12.004 19.627-12.231 35.726v201.842h-68.153v-206.734c0.284-34.418 11.378-62.236 32.768-82.546 20.935-20.935 47.218-31.744 78.564-32.028 31.573 0.284 58.084 11.093 78.848 31.972 20.821 20.48 31.687 48.356 32.256 82.83v206.507h-68.153z" />
<glyph unicode="&#xe913;" glyph-name="dapingjiankong" d="M960 128h-896v-64h896v64zM160 192c-35.328 0-64 28.672-64 64v448c0 35.328 28.672 64 64 64h704c35.328 0 64-28.672 64-64v-448c0-35.328-28.672-64-64-64h-704zM160 256h704v448h-704v-448z" />
<glyph unicode="&#xe914;" glyph-name="diannao" horiz-adv-x="1027" d="M581.325 32.393c0-28.058-22.357-50.79-50.381-50.79-27.848 0.019-50.416 22.598-50.416 50.449 0 0.12 0 0.24 0.001 0.36v-0.018 224.222c0 28.023 22.357 50.756 50.415 50.756v8.465c28.023 0 50.381-31.198 50.381-59.221v-224.256zM988.16-14.336c0-20.855-16.964-37.786-37.82-37.786h-840.021c-20.878 0-37.803 16.925-37.803 37.803s16.925 37.803 37.803 37.803v0h840.021c20.855 0 37.786-16.93 37.786-37.82zM1027.755 842.581c0 46.763-37.615 83.285-84.309 83.285h-825.003c-46.763 0-84.309-36.591-84.309-83.285v-430.319h993.621v430.319zM34.133 294.741c0-46.763 37.547-85.231 84.309-85.231h825.003c46.729 0 84.309 38.468 84.309 85.197v41.984h-993.621v-41.984z" />
<glyph unicode="&#xe915;" glyph-name="dianshi" d="M992.017 832h-960c-0.020 0-0.044 0-0.068 0-17.645 0-31.949-14.304-31.949-31.949 0-0.024 0-0.048 0-0.072v0.004-576c0-17.681 14.302-31.983 32.017-31.983h347.989c2.185 0 3.994-1.809 3.994-3.994v-107.998h-124.006c-2.198-0.019-3.974-1.796-3.994-3.992v-40.006c0-2.219 1.809-3.994 3.994-3.994h504.013c2.206 0 3.994 1.788 3.994 3.994v0 40.004c-0.019 2.198-1.796 3.974-3.992 3.994h-124.008v107.998c0 2.185 1.809 3.994 3.994 3.994h347.989c0.020 0 0.044 0 0.068 0 17.645 0 31.949 14.304 31.949 31.949 0 0.024 0 0.048 0 0.072v-0.004 575.966c0 0.010 0 0.022 0 0.034 0 17.645-14.304 31.949-31.949 31.949-0.024 0-0.048 0-0.072 0h0.004zM575.966 80.009h-128v95.949c0.019 8.833 7.175 15.989 16.007 16.009h95.985c8.833-0.019 15.989-7.175 16.009-16.007v-95.985z" />
<glyph unicode="&#xe916;" glyph-name="edit-1" d="M904.448 643.2l-207.488 207.552 45.184 45.248 207.552-207.552-45.248-45.248zM151.040 74.688l231.232 46.208 467.072 467.072-207.616 207.552-467.008-467.008-46.272-231.232c-0.237-1.132-0.373-2.432-0.373-3.765 0-10.604 8.596-19.2 19.2-19.2 1.332 0 2.633 0.136 3.889 0.394l-0.124-0.021zM641.728 705.024l117.12-117.12-408.128-408.064-146.368-29.248 29.312 146.368 408.064 408.064zM960 256h-256v-64h256v64zM960 128h-416v-64h416v64z" />
<glyph unicode="&#xe917;" glyph-name="fenxiang" d="M397.166 317.879c-35.193-38.076-85.394-61.838-141.144-61.838-106.039 0-192 85.961-192 192s85.961 192 192 192c50.714 0 96.836-19.662 131.159-51.78l-0.108 0.1 167.497 109.275c-6.753 16.093-10.676 34.797-10.676 54.417 0 79.539 64.479 144.018 144.018 144.018s144.018-64.479 144.018-144.018c0-79.539-64.479-144.018-144.018-144.018-37.205 0-71.115 14.108-96.673 37.266l0.122-0.109-165.376-107.813c14.043-26.77 21.943-57.125 21.943-89.381 0.073-26.331-5.339-52.297-15.799-76.434l241.079-135.534c26.604 31.844 66.329 51.957 110.752 51.957 79.539 0 144.018-64.479 144.018-144.018s-64.479-144.018-144.018-144.018c-79.539 0-144.018 64.479-144.018 144.018 0 12.407 1.569 24.448 4.519 35.935l-0.218-0.998-247.077 138.898z" />
<glyph unicode="&#xe918;" glyph-name="Frame-2147224437" d="M397.166 317.879c-35.193-38.076-85.394-61.838-141.144-61.838-106.039 0-192 85.961-192 192s85.961 192 192 192c50.714 0 96.836-19.662 131.159-51.78l-0.108 0.1 167.497 109.275c-6.753 16.093-10.676 34.797-10.676 54.417 0 79.539 64.479 144.018 144.018 144.018s144.018-64.479 144.018-144.018c0-79.539-64.479-144.018-144.018-144.018-37.205 0-71.115 14.108-96.673 37.266l0.122-0.109-165.376-107.813c14.043-26.77 21.943-57.125 21.943-89.381 0.073-26.331-5.339-52.297-15.799-76.434l241.079-135.534c26.604 31.844 66.329 51.957 110.752 51.957 79.539 0 144.018-64.479 144.018-144.018s-64.479-144.018-144.018-144.018c-79.539 0-144.018 64.479-144.018 144.018 0 12.407 1.569 24.448 4.519 35.935l-0.218-0.998-247.077 138.898z" />
<glyph unicode="&#xe919;" glyph-name="gaojing" d="M64 64h896v-64h-896v64zM128 128h768v-64h-768v64zM512.085 832h-0.085c-176 0-320-144-320-320v-352h160v320h64v-320h416v352.085c0 175.915-144 319.915-319.915 319.915z" />
<glyph unicode="&#xe91a;" glyph-name="gengduo-1" d="M576 128c0-35.346-28.654-64-64-64s-64 28.654-64 64v0c0 35.346 28.654 64 64 64s64-28.654 64-64v0zM512 704c35.346 0 64 28.654 64 64s-28.654 64-64 64v0c-35.346 0-64-28.654-64-64s28.654-64 64-64v0zM512 384c35.346 0 64 28.654 64 64s-28.654 64-64 64v0c-35.346 0-64-28.654-64-64s28.654-64 64-64v0z" />
<glyph unicode="&#xe91b;" glyph-name="gengduo" d="M903.765 503.936h-559.616c-30.244-0.862-54.433-25.585-54.433-55.957s24.189-55.096 54.354-55.956l0.079-0.002h559.616c30.244 0.862 54.433 25.585 54.433 55.957s-24.189 55.096-54.354 55.956l-0.079 0.002zM120.277 503.936c-0.46 0.014-1.002 0.021-1.545 0.021-30.916 0-55.979-25.063-55.979-55.979s25.063-55.979 55.979-55.979c0.543 0 1.085 0.008 1.625 0.023l-0.079-0.002c30.244 0.862 54.433 25.585 54.433 55.957s-24.189 55.096-54.354 55.956l-0.079 0.002zM120.277 783.787c-30.916 0-55.979-25.063-55.979-55.979s25.063-55.979 55.979-55.979v0c30.916 0 55.979 25.063 55.979 55.979s-25.063 55.979-55.979 55.979v0zM344.149 671.829h559.616c30.916 0 55.979 25.063 55.979 55.979s-25.063 55.979-55.979 55.979v0h-559.616c-30.916 0-55.979-25.063-55.979-55.979s25.063-55.979 55.979-55.979v0zM903.765 224.128h-559.616c-30.244-0.862-54.433-25.585-54.433-55.957s24.189-55.096 54.354-55.956l0.079-0.002h559.616c30.244 0.862 54.433 25.585 54.433 55.957s-24.189 55.096-54.354 55.956l-0.079 0.002zM120.277 224.128c-30.898-0.024-55.936-25.078-55.936-55.979 0-30.916 25.063-55.979 55.979-55.979 0.015 0 0.030 0 0.045 0h-0.002c30.898 0.024 55.936 25.078 55.936 55.979 0 30.916-25.063 55.979-55.979 55.979-0.015 0-0.030 0-0.045 0h0.002z" />
<glyph unicode="&#xe91c;" glyph-name="gonggao-1" d="M775.68 718.016c38.528-35.84 68.736-78.272 89.28-124.544 20.48-46.272 31.040-95.68 31.040-145.472s-10.496-99.2-31.040-145.472c-22.096-48.72-52.167-90.1-88.979-124.326l-0.237-0.218 43.648-46.72c43.208 40.184 78.282 88.452 102.921 142.481l1.143 2.799c24.128 54.4 36.48 112.64 36.48 171.456 0 58.88-12.352 117.12-36.48 171.456-25.783 56.827-60.857 105.095-103.789 145.027l-0.275 0.253-43.648-46.72zM667.328 605.056c45.632-44.8 68.736-101.184 68.672-157.056 0-55.872-23.232-112.256-68.928-156.992l44.8-45.76c57.344 56.192 88.064 128.768 88.128 202.752 0 73.92-30.528 146.496-87.808 202.752l-44.8-45.632zM256 256l271.552-162.944c4.696-2.859 10.374-4.551 16.448-4.551 17.673 0 32 14.327 32 32 0 0.025 0 0.050 0 0.075v-0.004 654.848c0 0.002 0 0.004 0 0.007 0 17.673-14.327 32-32 32-6.074 0-11.752-1.692-16.59-4.631l0.142 0.080-271.552-162.88h-121.28c-21.208 0-38.4-17.192-38.4-38.4v0l-0.32-307.2c0-21.208 17.192-38.4 38.4-38.4v0h121.6zM320 603.776l192 115.2v-541.952l-192 115.2v311.552zM256 320h-96l0.256 256h95.744v-256z" />
<glyph unicode="&#xe91d;" glyph-name="gonggao" d="M775.68 718.016c38.528-35.84 68.736-78.272 89.28-124.544 20.48-46.272 31.040-95.68 31.040-145.472s-10.496-99.2-31.040-145.472c-22.096-48.72-52.167-90.1-88.979-124.326l-0.237-0.218 43.648-46.72c43.208 40.184 78.282 88.452 102.921 142.481l1.143 2.799c24.128 54.4 36.48 112.64 36.48 171.456 0 58.88-12.352 117.12-36.48 171.456-25.783 56.827-60.857 105.095-103.789 145.027l-0.275 0.253-43.648-46.72zM667.328 605.056c45.632-44.8 68.736-101.184 68.672-157.056 0-55.872-23.232-112.256-68.928-156.992l44.8-45.76c57.344 56.192 88.064 128.768 88.128 202.752 0 73.92-30.528 146.496-87.808 202.752l-44.8-45.632zM256 256l271.552-162.944c4.696-2.859 10.374-4.551 16.448-4.551 17.673 0 32 14.327 32 32 0 0.025 0 0.050 0 0.075v-0.004 654.848c0 0.002 0 0.004 0 0.007 0 17.673-14.327 32-32 32-6.074 0-11.752-1.692-16.59-4.631l0.142 0.080-271.552-162.88h-121.28c-21.208 0-38.4-17.192-38.4-38.4v0l-0.32-307.2c0-21.208 17.192-38.4 38.4-38.4v0h121.6zM320 603.776l192 115.2v-541.952l-192 115.2v311.552zM256 320h-96l0.256 256h95.744v-256z" />
<glyph unicode="&#xe91e;" glyph-name="guanbi" d="M872.789 204.004h0.057zM927.858 448c0 229.319-186.596 415.858-415.858 415.858s-415.858-186.596-415.858-415.858c0-229.262 186.539-415.858 415.858-415.858 229.262 0 415.858 186.596 415.858 415.858zM512 91.876c-196.565 0.291-355.833 159.56-356.124 356.096v0.028c0.259 196.578 159.546 355.866 356.099 356.124h0.025c196.578-0.259 355.866-159.546 356.124-356.099v-0.025c-0.291-196.565-159.56-355.833-356.096-356.124h-0.028zM682.382 317.724l-128.569 129.024 128.455 127.033c5.436 5.386 8.801 12.853 8.801 21.106 0 16.407-13.301 29.708-29.708 29.708-8.154 0-15.541-3.285-20.909-8.604l-128.567-127.201-126.692 127.090c-5.382 5.397-12.826 8.735-21.049 8.735-16.418 0-29.727-13.309-29.727-29.727 0-8.195 3.316-15.615 8.679-20.993l126.577-126.862-127.545-126.123c-5.453-5.388-8.83-12.867-8.83-21.134 0-16.407 13.301-29.708 29.708-29.708 8.14 0 15.515 3.274 20.881 8.576l-0.003-0.003 127.716 126.293 128.683-129.138c5.382-5.397 12.826-8.735 21.049-8.735 16.418 0 29.727 13.309 29.727 29.727 0 8.195-3.316 15.615-8.679 20.993l0.001-0.001z" />
<glyph unicode="&#xe91f;" glyph-name="heimingdan" d="M414.528 783.36h188.16c1.534-0.181 3.31-0.285 5.11-0.285 25.414 0 46.016 20.602 46.016 46.016s-20.602 46.016-46.016 46.016c-2.186 0-4.336-0.152-6.441-0.447l0.243 0.028h-187.072c-23.072-2.671-40.815-22.095-40.815-45.664s17.744-42.993 40.602-45.644l0.214-0.020zM804.672 844.16h-93.184c1.024-4.928 1.472-10.048 1.472-15.168 0-38.4-27.712-76.16-60.992-76.16h-286.080c-35.008 0-62.72 37.76-62.72 76.16 0 5.12 0.64 10.24 1.472 15.168h-94.272c-75.776 0-94.528-42.88-94.528-104.96v-613.952c0-66.56 26.688-103.936 100.032-103.936h583.040c73.408 0 109.248 29.248 109.248 103.936v613.952c0 62.080-33.472 104.96-103.488 104.96zM736 202.048h-448c-23.524 0.072-42.579 19.105-42.688 42.614v0.010c0 23.488 19.2 42.688 42.688 42.688h448c23.488 0 42.688-19.2 42.688-42.688 0-23.424-19.2-42.624-42.688-42.624zM736 390.208h-448c-23.524 0.072-42.579 19.105-42.688 42.614v0.010c0 23.488 19.2 42.688 42.688 42.688h448c23.488 0 42.688-19.2 42.688-42.688 0-23.424-19.2-42.624-42.688-42.624zM736 578.368h-448c-23.524 0.072-42.579 19.105-42.688 42.614v0.010c0 23.488 19.2 42.688 42.688 42.688h448c23.488 0 42.688-19.2 42.688-42.688 0-23.424-19.2-42.624-42.688-42.624z" />
<glyph unicode="&#xe920;" glyph-name="huihua-1" d="M526.016-48.768c-0.063 0-0.138 0-0.212 0-77.303 0-149.941 19.97-213.038 55.032l2.243-1.144c-6.778 4.062-11.244 11.369-11.244 19.718 0 12.654 10.258 22.912 22.912 22.912 3.8 0 7.384-0.925 10.539-2.563l-0.127 0.060c57.472-31.616 122.88-48.32 188.928-48.32 62.144 0 121.6 14.080 176.64 41.792 3 1.544 6.546 2.449 10.304 2.449 12.646 0 22.897-10.252 22.897-22.897 0-8.888-5.064-16.593-12.464-20.388l-0.129-0.060c-57.099-29.374-124.597-46.593-196.116-46.593-0.398 0-0.796 0.001-1.194 0.002h0.062zM940.736 337.152c-0.64 0-1.152 0-1.6 0.128-11.88 0.896-21.18 10.755-21.18 22.787 0 0.584 0.022 1.164 0.065 1.737l-0.005-0.076c0.657 8.511 1.031 18.431 1.031 28.439 0 145.495-79.098 272.516-196.639 340.407l-1.896 1.010c-6.934 4.042-11.52 11.444-11.52 19.916 0 4.134 1.092 8.013 3.003 11.365l-0.059-0.113c4.042 6.934 11.444 11.52 19.916 11.52 4.134 0 8.013-1.092 11.365-3.003l-0.113 0.059c133.332-76.931 221.631-218.739 221.631-381.171 0-11.176-0.418-22.254-1.239-33.219l0.088 1.462c-0.894-11.916-10.781-21.246-22.848-21.248v0zM111.104 337.152c-12.038 0.007-21.891 9.347-22.716 21.176l-0.004 0.072c-0.729 9.475-1.144 20.519-1.144 31.661 0 150.394 75.697 283.109 191.069 362.122l1.499 0.97c3.604 2.473 8.060 3.95 12.861 3.95 7.844 0 14.767-3.942 18.897-9.952l0.050-0.078c2.455-3.594 3.92-8.034 3.92-12.817 0-7.831-3.929-14.745-9.923-18.877l-0.077-0.050c-104.714-71.702-172.532-190.639-172.532-325.415 0-9.918 0.367-19.75 1.089-29.484l-0.077 1.299c0.036-0.479 0.056-1.038 0.056-1.602 0-12.043-9.291-21.916-21.097-22.841l-0.079-0.005c-0.64-0.128-1.216-0.128-1.792-0.128zM157.632 6.656c-86.731 0.109-157.011 70.389-157.12 157.109v0.011c0.145 86.716 70.403 156.974 157.106 157.12h0.014c86.749-0.073 157.066-70.322 157.248-157.039v-0.017c-0.109-86.753-70.425-157.047-157.177-157.12h-0.007zM157.632 275.2c-59.926-2.095-107.711-51.179-107.711-111.424s47.785-109.329 107.52-111.419l0.191-0.005c59.926 2.095 107.711 51.179 107.711 111.424s-47.785 109.329-107.52 111.419l-0.191 0.005zM866.88 6.656c-86.731 0.109-157.011 70.389-157.12 157.109v0.011c0.145 86.716 70.403 156.974 157.106 157.12h0.014c86.744-0.109 157.038-70.381 157.184-157.106v-0.014c0-86.656-70.4-157.12-157.184-157.12zM866.88 275.2c-59.926-2.095-107.711-51.179-107.711-111.424s47.785-109.329 107.52-111.419l0.191-0.005c59.926 2.095 107.711 51.179 107.711 111.424s-47.785 109.329-107.52 111.419l-0.191 0.005zM512 630.4c-86.716 0.145-156.974 70.403-157.12 157.106v0.014c0.109 86.722 70.345 157.002 157.039 157.184h0.017c34.752 0 67.776-11.072 95.36-32.256 5.493-4.218 8.999-10.787 8.999-18.176 0-12.623-10.233-22.855-22.855-22.855-5.234 0-10.057 1.759-13.91 4.719l0.054-0.040c-18.537 14.257-42.075 22.848-67.62 22.848-61.573 0-111.488-49.915-111.488-111.488s49.915-111.488 111.488-111.488c0.035 0 0.071 0 0.106 0h-0.006c61.551 0.029 111.437 49.933 111.437 111.488 0 15.719-3.253 30.679-9.123 44.242l0.278-0.722c-1.149 2.634-1.817 5.703-1.817 8.928 0 12.615 10.226 22.841 22.841 22.841 9.39 0 17.456-5.666 20.967-13.765l0.057-0.148c8.256-19.456 12.48-40.128 12.48-61.44-0.255-86.692-70.536-156.883-157.238-156.992h-0.010z" />
<glyph unicode="&#xe921;" glyph-name="huihua" d="M526.016-48.768c-0.063 0-0.138 0-0.212 0-77.303 0-149.941 19.97-213.038 55.032l2.243-1.144c-6.778 4.062-11.244 11.369-11.244 19.718 0 12.654 10.258 22.912 22.912 22.912 3.8 0 7.384-0.925 10.539-2.563l-0.127 0.060c57.472-31.616 122.88-48.32 188.928-48.32 62.144 0 121.6 14.080 176.64 41.792 3 1.544 6.546 2.449 10.304 2.449 12.646 0 22.897-10.252 22.897-22.897 0-8.888-5.064-16.593-12.464-20.388l-0.129-0.060c-57.099-29.374-124.597-46.593-196.116-46.593-0.398 0-0.796 0.001-1.194 0.002h0.062zM940.736 337.152c-0.64 0-1.152 0-1.6 0.128-11.88 0.896-21.18 10.755-21.18 22.787 0 0.584 0.022 1.164 0.065 1.737l-0.005-0.076c0.657 8.511 1.031 18.431 1.031 28.439 0 145.495-79.098 272.516-196.639 340.407l-1.896 1.010c-6.934 4.042-11.52 11.444-11.52 19.916 0 4.134 1.092 8.013 3.003 11.365l-0.059-0.113c4.042 6.934 11.444 11.52 19.916 11.52 4.134 0 8.013-1.092 11.365-3.003l-0.113 0.059c133.332-76.931 221.631-218.739 221.631-381.171 0-11.176-0.418-22.254-1.239-33.219l0.088 1.462c-0.894-11.916-10.781-21.246-22.848-21.248v0zM111.104 337.152c-12.038 0.007-21.891 9.347-22.716 21.176l-0.004 0.072c-0.729 9.475-1.144 20.519-1.144 31.661 0 150.394 75.697 283.109 191.069 362.122l1.499 0.97c3.604 2.473 8.060 3.95 12.861 3.95 7.844 0 14.767-3.942 18.897-9.952l0.050-0.078c2.455-3.594 3.92-8.034 3.92-12.817 0-7.831-3.929-14.745-9.923-18.877l-0.077-0.050c-104.714-71.702-172.532-190.639-172.532-325.415 0-9.918 0.367-19.75 1.089-29.484l-0.077 1.299c0.036-0.479 0.056-1.038 0.056-1.602 0-12.043-9.291-21.916-21.097-22.841l-0.079-0.005c-0.64-0.128-1.216-0.128-1.792-0.128zM157.632 6.656c-86.731 0.109-157.011 70.389-157.12 157.109v0.011c0.145 86.716 70.403 156.974 157.106 157.12h0.014c86.749-0.073 157.066-70.322 157.248-157.039v-0.017c-0.109-86.753-70.425-157.047-157.177-157.12h-0.007zM157.632 275.2c-59.926-2.095-107.711-51.179-107.711-111.424s47.785-109.329 107.52-111.419l0.191-0.005c59.926 2.095 107.711 51.179 107.711 111.424s-47.785 109.329-107.52 111.419l-0.191 0.005zM866.88 6.656c-86.731 0.109-157.011 70.389-157.12 157.109v0.011c0.145 86.716 70.403 156.974 157.106 157.12h0.014c86.744-0.109 157.038-70.381 157.184-157.106v-0.014c0-86.656-70.4-157.12-157.184-157.12zM866.88 275.2c-59.926-2.095-107.711-51.179-107.711-111.424s47.785-109.329 107.52-111.419l0.191-0.005c59.926 2.095 107.711 51.179 107.711 111.424s-47.785 109.329-107.52 111.419l-0.191 0.005zM512 630.4c-86.716 0.145-156.974 70.403-157.12 157.106v0.014c0.109 86.722 70.345 157.002 157.039 157.184h0.017c34.752 0 67.776-11.072 95.36-32.256 5.493-4.218 8.999-10.787 8.999-18.176 0-12.623-10.233-22.855-22.855-22.855-5.234 0-10.057 1.759-13.91 4.719l0.054-0.040c-18.537 14.257-42.075 22.848-67.62 22.848-61.573 0-111.488-49.915-111.488-111.488s49.915-111.488 111.488-111.488c0.035 0 0.071 0 0.106 0h-0.006c61.551 0.029 111.437 49.933 111.437 111.488 0 15.719-3.253 30.679-9.123 44.242l0.278-0.722c-1.149 2.634-1.817 5.703-1.817 8.928 0 12.615 10.226 22.841 22.841 22.841 9.39 0 17.456-5.666 20.967-13.765l0.057-0.148c8.256-19.456 12.48-40.128 12.48-61.44-0.255-86.692-70.536-156.883-157.238-156.992h-0.010z" />
<glyph unicode="&#xe922;" glyph-name="jia" d="M488.727 471.273v234.682c0 11.776 9.542 21.318 21.318 21.318h42.682c11.776 0 21.318-9.542 21.318-21.318v-234.682h234.682c11.776 0 21.318-9.542 21.318-21.318v-42.682c0-11.774-9.544-21.318-21.318-21.318v0h-234.682v-234.682c0-11.774-9.544-21.318-21.318-21.318v0h-42.682c-11.774 0-21.318 9.544-21.318 21.318v0 234.682h-234.682c-11.774 0-21.318 9.544-21.318 21.318v0 42.682c0 11.776 9.542 21.318 21.318 21.318h234.682z" />
<glyph unicode="&#xe923;" glyph-name="jian" d="M254.045 494.545h554.682q21.318 0 21.318-21.318v-42.682q0-21.318-21.318-21.318h-554.682q-21.318 0-21.318 21.318v42.682q0 21.318 21.318 21.318z" />
<glyph unicode="&#xe924;" glyph-name="jiebang" d="M384 832v-128h64v128h-64zM169.344 745.408l103.808-103.808 45.248 45.248-103.744 103.808-45.312-45.248zM613.824 436.672l45.248-45.248 147.072 147.072c26.059 26.059 42.177 62.059 42.177 101.824 0 79.529-64.471 144.001-144.001 144.001-39.765 0-75.765-16.118-101.824-42.177l-147.072-147.072 45.248-45.248 147.072 147.072c14.479 14.479 34.482 23.435 56.576 23.435 44.189 0 80.011-35.822 80.011-80.011 0-22.094-8.955-42.097-23.435-56.576l-147.072-147.072zM128 512h128v64h-128v-64zM376.256 199.040l147.072 147.2 45.248-45.248-147.072-147.072c-26.059-26.059-62.059-42.177-101.824-42.177-79.529 0-144.001 64.471-144.001 144.001 0 39.765 16.118 75.765 42.177 101.824l147.072 147.072 45.248-45.248-147.072-147.072c-14.479-14.479-23.435-34.482-23.435-56.576 0-44.189 35.822-80.011 80.011-80.011 22.094 0 42.097 8.955 56.576 23.435v0zM896 384h-128v-64h128v64zM854.656 150.656l-103.808 103.744-45.248-45.248 103.744-103.744 45.312 45.248zM640 192v-128h-64v128h64z" />
<glyph unicode="&#xe925;" glyph-name="jinru" d="M435.769 306.631l54.727-54.613 195.584 195.413-195.584 195.584-54.784-54.727 101.717-101.604h-379.449v-78.336h379.449l-101.717-101.717zM783.872 799.516h-547.556c-43.065 0-78.279-35.214-78.279-78.165v-156.501h78.279v156.501h547.556v-547.669h-547.556v156.444h-78.279v-156.444c0-43.008 35.271-78.222 78.279-78.222h547.556c42.951 0 78.165 35.214 78.165 78.222v547.669c0 42.951-35.214 78.165-78.165 78.165z" />
<glyph unicode="&#xe926;" glyph-name="luxaingji" d="M746.65 505.446l-22.272 15.206c27.751 40.392 44.321 90.35 44.321 144.177 0 43.4-10.772 84.285-29.788 120.126l0.673-1.391-4.506 8.192 23.501 13.312 4.813-9.011c20.318-38.104 32.251-83.333 32.251-131.349 0-59.457-18.297-114.641-49.568-160.228l0.626 0.965zM808.806 121.139v-23.45h-592.896v23.45h134.144l83.456 386.15c2.69 12.259 13.457 21.299 26.336 21.299 0.011 0 0.023 0 0.034 0h39.064v75.674c-27.269 6.505-47.272 30.553-47.513 59.314v0.027c-0.033 0.754-0.051 1.638-0.051 2.527 0 34.441 27.92 62.362 62.362 62.362s62.362-27.92 62.362-62.362c0-0.889-0.019-1.773-0.055-2.652l0.004 0.126c-0.237-29.716-21.534-54.389-49.687-59.842l-0.387-0.062v-75.162h38.81c12.749 0 23.757-8.806 26.419-21.248l83.405-386.15h134.144zM563.405 380.57h-102.093l-17.408-80.435h136.96l-17.408 80.435zM438.067 273.152l-17.408-80.538h183.398l-17.408 80.538h-148.582zM481.587 474.624l-14.541-67.072h90.522l-14.49 67.072h-61.44zM405.197 121.088h214.323l-9.677 44.544h-195.072l-9.574-44.544zM388.557 582.042c-15.33 22.974-24.463 51.22-24.463 81.6 0 30.931 9.468 59.651 25.663 83.419l-0.33-0.514-22.323 15.053c-18.764-27.476-29.962-61.415-29.962-97.971 0-35.906 10.804-69.289 29.339-97.075l-0.401 0.639 22.528 14.848zM687.565 663.603c0 34.202-9.984 67.635-28.826 96.256l-22.528-14.848c15.267-22.941 24.361-51.131 24.361-81.445 0-30.932-9.468-59.652-25.664-83.421l0.33 0.514 22.323-15.002c19.558 28.928 30.003 62.976 29.952 97.946zM298.189 522.496c-26.459 39.728-42.22 88.555-42.22 141.063 0 47.007 12.632 91.064 34.686 128.961l-0.658-1.224-23.398 13.466c-23.625-40.509-37.573-89.172-37.573-141.092 0-58.105 17.468-112.131 47.44-157.111l-0.651 1.038 22.374 14.848z" />
<glyph unicode="&#xe927;" glyph-name="ram" d="M686.99 340.025h-349.98c-18.737-0.779-33.632-16.158-33.632-35.015s14.895-34.236 33.562-35.013l0.070-0.002h349.98c18.476 1.086 33.048 16.335 33.048 34.987s-14.572 33.9-32.952 34.982l-0.095 0.004zM610.020 558.023c16.558 0 29.98 13.423 29.98 29.98v110.023c0 16.573-13.435 30.009-30.009 30.009s-30.009-13.435-30.009-30.009v0-110.080c0-16.612 13.426-29.98 30.037-29.98zM852.025 847.986h-680.050c-33.052 0-59.961-26.908-59.961-59.961v-680.050c0-33.052 26.908-59.961 59.961-59.961h680.050c33.052 0 59.961 26.908 59.961 59.961v680.050c0 33.052-26.908 59.961-59.961 59.961zM332.004 778.012h359.993v-256c0-7.737-6.258-13.995-13.995-13.995h-332.004c-7.716 0.032-13.962 6.279-13.995 13.992v255.946zM841.956 148.025c0-0.017 0-0.037 0-0.057 0-16.558-13.423-29.98-29.98-29.98-0.020 0-0.040 0-0.060 0h-599.89c-0.017 0-0.037 0-0.057 0-16.558 0-29.98 13.423-29.98 29.98 0 0.020 0 0.040 0 0.060v-0.003 599.95c0 16.612 13.426 30.037 30.037 30.037h49.948v-300.032c0-16.555 13.426-29.98 30.037-29.98h439.979c0.017 0 0.037 0 0.057 0 16.558 0 29.98 13.423 29.98 29.98 0 0 0 0 0 0v0 300.032h49.948c16.612 0 30.037-13.426 30.037-30.037v-599.95z" />
<glyph unicode="&#xe928;" glyph-name="riqi" d="M640 768h-256v96h-64v-96h-128c-35.346 0-64-28.654-64-64v0-576c0-35.346 28.654-64 64-64v0h640c35.346 0 64 28.654 64 64v0 576c0 35.346-28.654 64-64 64v0h-128v96h-64v-96zM320 640h64v64h256v-64h64v64h128v-128h-640v128h128v-64zM192 512h640v-384h-640v384z" />
<glyph unicode="&#xe929;" glyph-name="rizhigaojing" d="M544 830.259v65.741h-64v-65.741c-144.026-15.923-256-138.035-256-286.259v-288l-57.6-76.8c-3.996-5.281-6.4-11.96-6.4-19.2 0-17.673 14.327-32 32-32h163.174c15.447-73.535 79.768-127.955 156.8-127.955s141.354 54.42 156.616 126.912l0.184 1.043h163.226c26.368 0 41.421 30.106 25.6 51.2l-57.6 76.8v288c-0.029 147.771-111.325 269.538-254.664 286.083l-1.336 0.125zM288 234.65v309.35c0 123.712 100.288 224 224 224s224-100.288 224-224v0-309.35l32-42.65h-512l32 42.65zM512 64c-41.779 0-77.363 26.726-90.522 64h181.043c-13.591-37.6-48.973-63.989-90.52-64h-0.001z" />
<glyph unicode="&#xe92a;" glyph-name="shanchu-1" d="M202.688 704h-42.688c-17.673 0-32 14.327-32 32s14.327 32 32 32v0h704c17.673 0 32-14.327 32-32s-14.327-32-32-32v0h-597.312v-565.312c0-29.44 23.872-53.376 53.312-53.376h384c29.44 0 53.312 23.936 53.312 53.376v469.312c0 17.673 14.327 32 32 32s32-14.327 32-32v0-469.312c0-64.832-52.48-117.376-117.312-117.376h-384c-64.79 0-117.312 52.522-117.312 117.312 0 0.023 0 0.045 0 0.068v-0.004 565.312zM426.688 810.688c-17.673 0-32 14.327-32 32s14.327 32 32 32v0h170.624c17.673 0 32-14.327 32-32s-14.327-32-32-32v0h-170.624zM394.688 522.688c0 17.673 14.327 32 32 32s32-14.327 32-32v0-256c0-17.673-14.327-32-32-32s-32 14.327-32 32v0 256zM565.312 522.688c0 17.673 14.327 32 32 32s32-14.327 32-32v0-256c0-17.673-14.327-32-32-32s-32 14.327-32 32v0 256z" />
<glyph unicode="&#xe92b;" glyph-name="shanchu-2" d="M214.309 99.621c0-55.003 44.617-99.621 99.621-99.621h398.043c55.003 0 99.621 44.471 99.621 99.621v597.285h-597.285v-597.285zM861.403 846.263h-174.226l-49.737 49.81h-248.978l-49.81-49.737h-174.153v-99.621h696.905v99.547z" />
<glyph unicode="&#xe92c;" glyph-name="shanchu" d="M170.667 789.618h693.931v-56.661h-693.931v56.661zM197.404 676.352h640.569l-74.297-622.876h-492.089l-74.183 622.876zM410.908 846.222h213.504v-84.935h-213.504v84.935z" />
<glyph unicode="&#xe92d;" glyph-name="shanchu-21" d="M202.688 704h-42.688c-17.673 0-32 14.327-32 32s14.327 32 32 32v0h704c17.673 0 32-14.327 32-32s-14.327-32-32-32v0h-597.312v-565.312c0-29.44 23.872-53.376 53.312-53.376h384c29.44 0 53.312 23.872 53.312 53.376v469.312c0 17.673 14.327 32 32 32s32-14.327 32-32v0-469.312c0-64.832-52.48-117.376-117.312-117.376h-384c-64.79 0-117.312 52.522-117.312 117.312 0 0.023 0 0.045 0 0.068v-0.004 565.312zM426.688 810.688c-17.673 0-32 14.327-32 32s14.327 32 32 32v0h170.624c17.673 0 32-14.327 32-32s-14.327-32-32-32v0h-170.624zM394.688 522.688c0 17.673 14.327 32 32 32s32-14.327 32-32v0-256c0-17.673-14.327-32-32-32s-32 14.327-32 32v0 256zM565.312 522.688c0 17.673 14.327 32 32 32s32-14.327 32-32v0-256c0-17.673-14.327-32-32-32s-32 14.327-32 32v0 256z" />
<glyph unicode="&#xe92e;" glyph-name="shanchu-3" d="M214.309 99.621c0-55.003 44.617-99.621 99.621-99.621h398.043c55.003 0 99.621 44.471 99.621 99.621v597.285h-597.285v-597.285zM861.403 846.263h-174.226l-49.737 49.81h-248.978l-49.81-49.737h-174.153v-99.621h696.905v99.547z" />
<glyph unicode="&#xe92f;" glyph-name="shangwangrenzheng" d="M949.248 581.99l-44.749-45.824c-111.104 115.558-250.88 177.459-393.421 177.459-141.722 0-280.73-61.184-391.578-175.616l-44.698 45.875c121.446 124.621 275.917 193.741 436.275 193.741 161.178 0 316.416-69.786 438.118-195.584zM824.115 453.683l-44.698-45.824c-77.619 80.589-172.698 122.522-268.339 122.522-94.822 0-189.235-41.267-266.496-120.627l-44.698 45.824c87.603 89.395 197.427 138.854 311.194 138.854 114.586 0 225.126-50.125 313.037-140.698zM694.477 320.768l-44.646-45.824c-42.906 44.134-92.058 65.024-138.752 65.024-46.080 0-94.515-20.275-136.96-63.078l-44.646 45.824c52.429 52.429 115.917 81.203 181.555 81.203 66.458 0 130.714-29.44 183.45-83.149zM512 96c35.346 0 64 28.654 64 64s-28.654 64-64 64v0c-35.346 0-64-28.654-64-64s28.654-64 64-64v0z" />
<glyph unicode="&#xe930;" glyph-name="shanxuan" d="M295.68 938.048l603.328-603.392-60.288-60.352-163.136 163.072-78.272-117.376v-298.688h-170.624v298.688l-256 384h-42.688v85.312h195.648l-88.32 88.384 60.288 60.352zM896 789.312v-85.312h-42.688l-81.664-122.56-207.872 207.872h332.224z" />
<glyph unicode="&#xe931;" glyph-name="shauxin-1" d="M674.112 81.088l-98.112 102.4c128 17.024 230.4 123.712 230.4 251.712 0 123.712-93.888 230.4-217.6 251.712l-89.6 89.6h38.4c196.224 0 354.112-153.6 354.112-341.312 0-128-76.8-243.2-183.488-298.688v-85.312l-34.112 29.888zM580.224 98.112c-12.8 0-29.824-4.224-46.912-4.224-196.288 0-354.112 153.6-354.112 341.312 0 128 76.8 243.2 183.424 298.688v98.112l140.8-140.8c-132.224-12.8-234.624-123.712-234.624-256 0-128 98.112-234.688 226.112-251.712l85.312-85.376z" />
<glyph unicode="&#xe932;" glyph-name="shauxin" d="M938.667 448c0-235.648-191.019-426.667-426.667-426.667s-426.667 191.019-426.667 426.667 191.019 426.667 426.667 426.667v-85.333c-188.502-0.015-341.307-152.83-341.307-341.333 0-188.513 152.82-341.333 341.333-341.333s341.333 152.82 341.333 341.333c0 104.885-47.307 198.72-121.747 261.334l-0.52 0.426-91.093-91.093v256h256l-104.405-104.405c90.307-78.488 147.072-193.536 147.072-321.843 0-0.147 0-0.294 0-0.441v0.023z" />
<glyph unicode="&#xe933;" glyph-name="shebei-1" d="M279.4 926.702h427.94c43.902-0.151 79.449-35.71 79.581-79.602v-862.586h-39.458v-23.641c0-13.652-11.188-24.873-24.84-24.873h-59.603c-13.689 0.057-24.769 11.148-24.807 24.836v23.645h-295.516v-23.641c0-13.652-11.155-24.84-24.807-24.84h-59.603c-13.704 0.038-24.802 11.136-24.84 24.836v23.645h-33.664v862.64c0.151 43.902 35.71 79.449 79.602 79.581h0.013zM493.27 852.549c-40.956 0-78.049-16.615-104.887-43.453-26.865-26.777-43.487-63.817-43.487-104.738 0-0.064 0-0.128 0-0.192v0.010c0-40.956 16.615-78.083 43.453-104.954 26.779-26.845 63.809-43.453 104.719-43.453 0.071 0 0.142 0 0.213 0h-0.011c40.989 0 78.083 16.615 104.954 43.453 26.846 26.794 43.453 63.838 43.453 104.76 0 0.068 0 0.136 0 0.204v-0.011c0 40.956-16.649 78.083-43.453 104.887-26.786 26.885-63.843 43.52-104.785 43.52-0.059 0-0.119 0-0.178 0h0.009zM493.27 406.861c-0.003 0-0.007 0-0.011 0-65.376 0-118.373-52.997-118.373-118.373s52.997-118.373 118.373-118.373c0.004 0 0.008 0 0.011 0v0c65.371 0.006 118.362 53.001 118.362 118.373s-52.991 118.367-118.362 118.373v0zM493.27 510.882c-0.073 0-0.159 0-0.244 0-61.326 0-116.838-24.893-156.983-65.126l-0.004-0.004c-40.256-40.137-65.164-95.649-65.164-156.979 0-0.101 0-0.201 0-0.302v0.016c0-61.434 24.873-117.008 65.163-157.264 40.133-40.236 95.632-65.13 156.945-65.13 0.101 0 0.201 0 0.302 0h-0.016c0.091 0 0.198 0 0.305 0 61.317 0 116.821 24.894 156.955 65.126l0.005 0.005c40.237 40.139 65.13 95.642 65.13 156.959 0 0.107 0 0.215 0 0.322v-0.017c0 0.087 0 0.189 0 0.291 0 61.322-24.893 116.829-65.126 156.969l-0.004 0.004c-40.152 40.257-95.677 65.163-157.020 65.163-0.086 0-0.172 0-0.258 0h0.014zM627.393 422.577c-34.235 34.313-81.572 55.541-133.867 55.541-0.090 0-0.18 0-0.27 0h0.014c-0.074 0-0.162 0-0.25 0-52.286 0-99.614-21.228-133.835-55.537l-0.004-0.004c-34.292-34.222-55.507-81.536-55.507-133.806 0-0.1 0-0.199 0-0.299v0.015c0-52.377 21.211-99.76 55.507-134.089 34.23-34.312 81.562-55.54 133.853-55.54 0.083 0 0.166 0 0.249 0h-0.013c0.072 0 0.157 0 0.242 0 52.299 0 99.64 21.228 133.877 55.537l0.003 0.003c34.293 34.232 55.507 81.555 55.507 133.834 0 0.090 0 0.18 0 0.269v-0.014c0 0.076 0 0.166 0 0.256 0 52.278-21.215 99.602-55.504 133.831l-0.003 0.003zM493.27 771.436c-37.147 0-67.261-30.114-67.261-67.261s30.114-67.261 67.261-67.261v0c37.147 0 67.261 30.114 67.261 67.261s-30.114 67.261-67.261 67.261v0zM575.016 785.92c-20.857 20.9-49.695 33.83-81.552 33.83-0.068 0-0.136 0-0.204 0h0.011c-0.048 0-0.104 0-0.161 0-31.857 0-60.694-12.93-81.55-33.829l-0.002-0.002c-20.94-20.874-33.897-49.747-33.897-81.646 0-0.035 0-0.070 0-0.105v0.005c0-31.966 12.986-60.835 33.897-81.746 20.869-20.94 49.737-33.897 81.632-33.897 0.028 0 0.057 0 0.085 0h-0.004c31.966 0 60.835 12.986 81.746 33.897 20.92 20.866 33.864 49.721 33.864 81.599 0 0.052 0 0.103 0 0.155v-0.008c0 31.932-12.919 60.835-33.864 81.746z" />
<glyph unicode="&#xe934;" glyph-name="shebei-2" d="M674.475 523.008c-0.013 0-0.028 0-0.043 0-26.863 0-48.64 21.777-48.64 48.64 0 0.030 0 0.060 0 0.090v-0.005c-0.024 63.896-51.816 115.688-115.71 115.712h-0.002c-63.896-0.024-115.688-51.816-115.712-115.71v-0.002c0-26.922-21.825-48.747-48.747-48.747s-48.747 21.825-48.747 48.747v0c2.919 115.435 97.19 207.897 213.056 207.897s210.137-92.463 213.051-207.627l0.005-0.27c0-0.076 0.001-0.166 0.001-0.256 0-26.722-21.662-48.384-48.384-48.384-0.045 0-0.090 0-0.136 0h0.007zM823.68 523.008c-26.863 0-48.64 21.777-48.64 48.64 0 0.015 0 0.030 0 0.045v-0.002c0 146.251-118.56 264.811-264.811 264.811s-264.811-118.56-264.811-264.811v0c0-26.887-21.796-48.683-48.683-48.683s-48.683 21.796-48.683 48.683v0c0.061 133.365 72.098 249.89 179.371 312.845l1.706 0.926c51.966 30.498 114.45 48.51 181.141 48.51s129.176-18.012 182.854-49.437l-1.713 0.926c109.012-63.752 181.077-180.241 181.077-313.561 0-0.074 0-0.147 0-0.221v0.011c-0.145-26.865-21.933-48.592-48.806-48.64h-0.005zM937.856 355.584h-377.429v167.424c0 26.898-21.806 48.704-48.704 48.704s-48.704-21.806-48.704-48.704v0-167.424h-377.6c-33.621 0-60.8-27.307-60.8-60.8v-272.384c0-33.664 27.307-60.8 60.8-60.8h852.309c33.664 0 60.843 27.307 60.843 60.8v272.213c0 0.076 0.001 0.166 0.001 0.256 0 33.541-27.178 60.733-60.713 60.757h-0.002zM174.805 109.824c-26.887 0-48.683 21.796-48.683 48.683s21.796 48.683 48.683 48.683v0c26.887 0 48.683-21.796 48.683-48.683s-21.796-48.683-48.683-48.683v0zM322.389 109.824c-26.887 0-48.683 21.796-48.683 48.683s21.796 48.683 48.683 48.683v0c26.887 0 48.683-21.796 48.683-48.683s-21.796-48.683-48.683-48.683v0z" />
<glyph unicode="&#xe935;" glyph-name="shebei" horiz-adv-x="1433" d="M996.284 780.8h-832c-0.010 0-0.022 0-0.034 0-15.307 0-27.716-12.409-27.716-27.716 0-0.012 0-0.024 0-0.036v0.002-499.2c0-15.326 12.39-27.716 27.75-27.716h301.568c1.911 0 3.482-1.57 3.482-3.482v-93.594h-107.452c0 0 0 0 0 0-1.911 0-3.462-1.539-3.481-3.446v-34.681c0-1.911 1.57-3.482 3.482-3.482h436.77c1.923 0 3.482 1.559 3.482 3.482v0 34.679c-0.019 1.908-1.571 3.447-3.481 3.447 0 0 0 0 0 0h-107.452v93.594c0 1.911 1.57 3.482 3.482 3.482h301.568c15.36 0 27.75 12.39 27.75 27.75v499.166c0 15.307-12.409 27.716-27.716 27.716-0.012 0-0.024 0-0.036 0h0.002zM635.699 129.058h-110.933v83.217c0 7.612 6.246 13.858 13.858 13.858h83.217c7.612 0 13.858-6.246 13.858-13.858v-83.217zM1092.267 100.454c0-15.428 11.127-27.921 24.815-27.921h173.773c13.722 0 24.815 12.493 24.815 27.921v43.145h-223.403v-43.145zM1186.543 120.832h34.884c4.574-0.41 8.124-4.745 8.124-9.933s-3.55-9.523-8.124-9.933h-34.884c-4.608 0.41-8.124 4.745-8.124 9.933s3.516 9.523 8.124 9.933zM1315.669 351.812v-190.737h-223.403v190.737c0 15.428 11.127 27.921 24.815 27.921h173.773c13.722 0 24.815-12.493 24.815-27.921z" />
<glyph unicode="&#xe936;" glyph-name="shebeiliebiao" d="M96 800c0 17.664 14.336 32 32 32h768c17.664 0 32-14.336 32-32l0.102-288c0-17.664-14.336-32-32-32h-768c-0.015 0-0.033 0-0.051 0-17.673 0-32 14.327-32 32v0 288zM160.051 544h704v224h-704v-224zM448 624.026h-192v64h192v-64zM128.102 416c-17.673 0-32-14.327-32-32v0-288c0-17.664 14.336-32 32-32h768c17.664 0 32 14.336 32 32v288c0 17.673-14.327 32-32 32v0h-768zM864.102 128h-704v224h704v-224zM256 208.026h192v64h-192v-64z" />
<glyph unicode="&#xe937;" glyph-name="sheixangtou" d="M520.96 144.704c197.888 0 358.912 166.080 358.912 370.112s-161.088 370.112-358.912 370.112-358.912-166.016-358.912-370.112c0-204.096 160.96-370.112 358.848-370.112zM520.96 820.928c162.624 0 294.912-137.344 294.912-306.112 0-168.832-132.288-306.112-294.976-306.112-162.56 0-294.848 137.344-294.848 306.112s132.224 306.112 294.848 306.112zM824.32 213.888c-3.778 1.689-8.188 2.672-12.828 2.672-17.744 0-32.128-14.384-32.128-32.128 0-11.394 5.931-21.402 14.874-27.107l0.13-0.077c21.888-11.584 27.264-20.736 27.52-22.528-1.92-20.864-106.688-69.824-300.992-69.824-191.488 0-299.072 49.536-300.8 69.824 0.064 1.664 4.992 10.432 26.112 21.888 9.622 5.638 15.981 15.927 15.981 27.702 0 17.673-14.327 32-32 32-5.269 0-10.241-1.274-14.624-3.53l0.18 0.084c-49.28-26.688-59.712-57.216-59.712-78.144 0-91.968 189.12-133.824 364.864-133.824 175.808 0 364.992 41.856 364.992 133.824 0 21.248-10.688 52.224-61.632 79.168zM520.96 341.184c0.019 0 0.042 0 0.064 0 95.894 0 173.632 77.738 173.632 173.632 0 95.872-77.701 173.596-173.565 173.632h-0.003c-0.019 0-0.042 0-0.064 0-95.894 0-173.632-77.738-173.632-173.632 0-95.872 77.701-173.596 173.565-173.632h0.003zM460.992 656.832c39.199 0 70.976-31.777 70.976-70.976s-31.777-70.976-70.976-70.976v0c-39.199 0-70.976 31.777-70.976 70.976s31.777 70.976 70.976 70.976v0z" />
<glyph unicode="&#xe938;" glyph-name="shezhi-1" d="M913.92 528.192c-4.864 25.792-20.672 42.432-40.96 42.432h-3.456c-54.784 0-99.264 44.544-99.264 99.264 0 17.28 8.32 36.992 8.64 37.76 2.769 6.257 4.381 13.555 4.381 21.23 0 17.939-8.807 33.821-22.333 43.557l-0.159 0.109-102.72 57.216-1.472 0.704c-6.518 2.612-14.074 4.128-21.984 4.128-16.323 0-31.138-6.452-42.035-16.946l0.019 0.018c-11.072-11.392-49.28-43.968-78.464-43.968-29.568 0-67.84 33.28-78.976 44.864-10.871 10.686-25.791 17.283-42.252 17.283-7.799 0-15.252-1.481-22.093-4.177l0.409 0.142-106.368-58.24-1.6-1.024c-13.669-9.834-22.466-25.697-22.466-43.614 0-7.646 1.602-14.918 4.488-21.498l-0.135 0.344c0.32-0.768 8.64-20.352 8.64-37.888 0-54.72-44.48-99.2-99.2-99.2h-4.16c-19.648 0-35.456-16.704-40.32-42.496-0.384-1.856-8.64-45.44-8.64-80.448 0-34.944 8.256-78.528 8.64-80.384 4.864-25.792 20.672-42.432 40.96-42.432h3.456c54.784 0 99.264-44.544 99.264-99.264 0-17.408-8.32-37.12-8.64-37.824-2.752-6.24-4.354-13.517-4.354-21.167 0-17.899 8.769-33.751 22.245-43.493l0.157-0.108 100.736-56.576 1.536-0.64c6.517-2.679 14.082-4.234 22.010-4.234 16.53 0 31.481 6.76 42.239 17.667l0.007 0.007c14.080 15.168 52.224 46.72 80.192 46.72 30.336 0 69.44-35.264 80.704-47.744 10.677-11.207 25.715-18.177 42.381-18.177 0.108 0 0.216 0 0.324 0.001h-0.017c7.68 0 14.848 1.472 21.504 4.352l104.448 57.6 1.536 0.96c13.657 9.835 22.445 25.691 22.445 43.599 0 7.627-1.594 14.882-4.467 21.45l0.134-0.345c-0.32 0.832-8.64 20.416-8.64 37.952 0 54.72 44.48 99.2 99.2 99.2h4.16c19.648 0 35.456 16.704 40.32 42.496 0.384 1.856 8.576 45.44 8.576 80.384 0 35.008-8.192 78.592-8.576 80.448zM862.976 447.744c0-22.592-4.48-51.648-6.528-63.808-81.917-6.895-145.792-75.084-145.792-158.193 0-0.028 0-0.056 0-0.084v0.004c0-23.424 7.488-45.888 11.392-56.192l-89.088-49.216c-10.636 10.973-22.048 21.044-34.2 30.184l-0.744 0.536c-30.976 23.040-60.608 34.688-88.128 34.688-27.264 0-56.704-11.392-87.488-34.048-17.536-12.8-30.272-25.472-34.752-30.208l-85.76 48c4.224 10.88 11.456 33.024 11.456 56.256 0 0.025 0 0.055 0 0.085 0 83.086-63.841 151.261-145.144 158.148l-0.584 0.040c-3.558 18.786-5.928 40.773-6.578 63.191l-0.014 0.617c0 22.656 4.48 51.712 6.592 63.872 81.888 6.927 145.728 75.102 145.728 158.187 0 0.030 0 0.060 0 0.089v-0.005c-0.571 20.334-4.702 39.543-11.788 57.249l0.396-1.121 91.328 50.176c3.968-3.968 16.96-16.768 34.816-29.44 30.336-21.632 59.264-32.64 86.016-32.64 26.496 0 55.168 10.816 85.312 32 17.984 12.672 30.976 25.216 34.752 28.8l87.936-48.832c-4.032-10.24-11.456-32.64-11.456-56.192 0-0.023 0-0.051 0-0.079 0-83.108 63.875-151.298 145.21-158.153l0.582-0.039c2.048-12.16 6.528-41.344 6.528-63.872zM510.208 594.368c-80.616-0.109-145.939-65.432-146.048-146.038v-0.010c0.109-80.616 65.432-145.939 146.038-146.048h0.010c80.616 0.109 145.939 65.432 146.048 146.038v0.010c-0.109 80.616-65.432 145.939-146.038 146.048h-0.010zM596.736 448.32c-2.237-46.037-40.106-82.516-86.496-82.516s-84.259 36.479-86.488 82.316l-0.008 0.2c0 47.68 38.784 86.464 86.464 86.464 47.744 0 86.528-38.784 86.528-86.464z" />
<glyph unicode="&#xe939;" glyph-name="shezhi" d="M511.488 302.208c-88.377 0-160.021 71.644-160.021 160.021s71.644 160.021 160.021 160.021v0c88.366 0 160-71.634 160-160s-71.634-160-160-160v0zM862.891 441.685c0.356 6.024 0.558 13.070 0.558 20.163 0 13.88-0.776 27.578-2.288 41.055l0.151-1.655 103.723 71.979c8.898 6.513 14.611 16.919 14.611 28.66 0 6.283-1.636 12.184-4.506 17.3l0.092-0.178-96.128 166.4c-6.308 10.337-17.526 17.133-30.33 17.133-5.208 0-10.153-1.124-14.607-3.143l0.223 0.090-114.176-53.76c-19.568 14.564-41.792 27.631-65.385 38.187l-2.241 0.896-10.453 118.613c-1.451 17.237-16.939 24.533-34.56 24.533h-192.213c-17.365 0-33.067-7.040-34.56-24.576l-10.453-122.112c-25.728-11.307-49.877-23.808-71.936-40.661l-121.173 58.027c-4.302 2.015-9.341 3.192-14.655 3.192-12.658 0-23.758-6.674-29.973-16.695l-0.087-0.15-96.085-166.187c-2.781-4.926-4.42-10.816-4.42-17.088 0-11.736 5.736-22.132 14.558-28.537l0.102-0.070 114.219-79.232c-0.91-9.565-1.428-20.681-1.428-31.918 0-7.128 0.209-14.208 0.62-21.233l-0.045 0.97-102.144-70.912c-8.88-6.514-14.581-16.91-14.581-28.638 0-6.292 1.641-12.201 4.518-17.322l-0.092 0.178 96.085-166.4c6.307-10.346 17.529-17.148 30.339-17.148 5.221 0 10.178 1.13 14.64 3.158l-0.222-0.090 98.56 46.464c24.005-20.010 51.408-37.199 80.967-50.434l2.233-0.894 10.496-132.864c1.408-17.28 16.896-38.827 34.56-38.827h192.171c17.408 0 33.067 21.333 34.56 38.827l10.453 129.323c30.165 13.227 58.155 32.341 83.2 53.077l98.56-45.568c15.701-7.424 35.925-0.768 44.8 14.507l96.085 166.656c2.767 4.94 4.397 10.842 4.397 17.123 0 11.771-5.723 22.206-14.538 28.674l-0.099 0.069-102.101 71.040z" />
<glyph unicode="&#xe93a;" glyph-name="shijain" d="M512 0c247.424 0 448 200.576 448 448s-200.576 448-448 448v0c-247.424 0-448-200.576-448-448s200.576-448 448-448v0zM512 832c212.077 0 384-171.923 384-384s-171.923-384-384-384v0c-212.077 0-384 171.923-384 384s171.923 384 384 384v0zM480 423.104v280.896h64v-254.4l141.248-148.352-45.248-45.248-160 167.104z" />
<glyph unicode="&#xe93b;" glyph-name="shuangchuan" d="M96 800c0 35.346 28.654 64 64 64v0h704c35.346 0 64-28.654 64-64v0-704c0-35.346-28.654-64-64-64v0h-704c-35.346 0-64 28.654-64 64v0 704zM864 96v704h-704v-704h704zM512 416c88.366 0 160 71.634 160 160s-71.634 160-160 160v0c-88.366 0-160-71.634-160-160s71.634-160 160-160v0zM512 672c53.019 0 96-42.981 96-96s-42.981-96-96-96v0c-53.019 0-96 42.981-96 96s42.981 96 96 96v0zM736 231.68c-64.841 35.284-141.965 56.113-223.936 56.32h-0.064c-82.034-0.207-159.158-21.035-226.522-57.571l2.522 1.251v-71.68h-64v73.088c0 22.208 11.456 43.136 31.104 53.632 74.263 40.915 162.736 65.071 256.833 65.28h0.063c94.161-0.209 182.634-24.365 259.712-66.697l-2.816 1.417c19.648-10.496 31.104-31.36 31.104-53.632v-73.088h-64v71.68z" />
<glyph unicode="&#xe93c;" glyph-name="shuaxin" d="M928 428.992c-17.673 0-32-14.327-32-32v0c0-51.84-10.176-102.144-30.144-149.504-39.882-92.368-112.033-164.498-201.919-203.39l-2.497-0.962c-43.863-19.058-94.954-30.145-148.634-30.145-0.284 0-0.567 0-0.85 0.001h0.044c-51.84 0-102.144 10.112-149.44 30.144-92.383 39.854-164.534 111.984-203.454 201.856l-0.962 2.496c-19.058 43.867-30.145 94.962-30.145 148.647 0 0.301 0 0.603 0.001 0.904v-0.047c0 51.84 10.112 102.144 30.144 149.44 39.882 92.368 112.033 164.498 201.919 203.39l2.497 0.962c44.209 19.037 95.672 30.107 149.721 30.107 20.796 0 41.21-1.639 61.119-4.795l-2.2 0.287-56.576-21.952c-12.025-4.79-20.37-16.333-20.37-29.824 0-17.683 14.335-32.018 32.018-32.018 4.192 0 8.195 0.805 11.864 2.27l-0.216-0.076 136.96 53.376c12.057 4.769 20.431 16.324 20.431 29.835 0 4.187-0.804 8.187-2.267 11.853l0.076-0.216-53.376 136.96c-4.629 12.338-16.325 20.96-30.035 20.96-17.673 0-32-14.327-32-32 0-4.373 0.877-8.542 2.465-12.339l-0.078 0.211 26.688-68.48c-28.422 6.388-61.065 10.048-94.562 10.048-63.052 0-123.076-12.968-177.549-36.383l2.926 1.119c-107.773-46.466-191.934-130.627-237.28-235.489l-1.12-2.911c-22.254-51.212-35.201-110.864-35.201-173.54 0-0.28 0-0.56 0.001-0.839v0.043c0-60.48 11.84-119.168 35.2-174.4 46.472-107.77 130.63-191.928 235.489-237.279l2.911-1.121c55.232-23.36 113.92-35.2 174.4-35.2s119.104 11.84 174.4 35.2c107.773 46.466 191.934 130.627 237.28 235.489l1.12 2.911c23.36 55.232 35.2 113.92 35.2 174.4 0 17.673-14.327 32-32 32v0z" />
<glyph unicode="&#xe93d;" glyph-name="sousuo" d="M576.427 353.323c-34.603-28.166-79.224-45.226-127.83-45.226-112.26 0-203.264 91.004-203.264 203.264s91.004 203.264 203.264 203.264c112.26 0 203.264-91.004 203.264-203.264 0-48.606-17.060-93.227-45.52-128.202l0.293 0.372 150.699-150.613-30.208-30.251-150.699 150.656zM609.152 511.403c0.014 0.779 0.021 1.697 0.021 2.617 0 88.672-71.883 160.555-160.555 160.555s-160.555-71.883-160.555-160.555c0-0.92 0.008-1.839 0.023-2.755l-0.002 0.138c1.472-87.539 72.782-157.937 160.533-157.937s159.061 70.398 160.531 157.799l0.002 0.138z" />
<glyph unicode="&#xe93e;" glyph-name="tianjia-xiangmu" d="M736 640c0-123.712-100.288-224-224-224s-224 100.288-224 224v0c0 123.712 100.288 224 224 224s224-100.288 224-224v0zM352 640c0-88.366 71.634-160 160-160s160 71.634 160 160v0c0 88.366-71.634 160-160 160s-160-71.634-160-160v0zM512 288c77.696 0 152.704-10.88 224-31.104v66.304c-67.064 18.291-144.066 28.8-223.522 28.8-0.168 0-0.337 0-0.505 0h0.027c-136.512 0-265.6-31.168-381.632-86.592-20.522-10.237-34.371-31.079-34.371-55.156 0-0.229 0.001-0.458 0.004-0.687v0.035-145.6c0-17.673 14.327-32 32-32v0h480v64h-448v112.64c102.86 50.082 223.776 79.36 351.53 79.36 0.165 0 0.33 0 0.496 0h-0.025zM816-64v144h-144v64h144v144h64v-144h144v-64h-144v-144h-64z" />
<glyph unicode="&#xe93f;" glyph-name="tianjia" d="M192 832c0 35.584 28.416 64 64 64h274.752c0.007 0 0.016 0 0.025 0 7.701 0 15.085-1.36 21.924-3.854l-0.445 0.142c6.4-1.088 12.8-4.096 18.24-9.472l242.752-242.816c11.583-11.579 18.748-27.576 18.752-45.247v-177.729h-64v158.976h-256v256h-256v-704h290.304v-64h-290.304c-35.584 0-64 28.416-64 64v704zM576 640h146.752l-146.752 146.752v-146.752zM768 128v-128h64v128h128v64h-128v128h-64v-128h-128v-64h128z" />
<glyph unicode="&#xe940;" glyph-name="tianjiashebei" d="M903.168 330.752h-38.912v117.76h-323.072v116.224h69.632c10.24 0 18.432 8.192 18.432 18.944v254.976c0 0.039 0 0.086 0 0.132 0 10.257-8.207 18.597-18.412 18.812h-197.652c-10.19-0.033-18.437-8.301-18.437-18.496 0-0.158 0.002-0.315 0.006-0.471v0.023-254.976c0-10.24 8.192-18.944 18.432-18.944h69.632v-116.224h-322.048v-117.76h-39.936c-10.19-0.033-18.437-8.301-18.437-18.496 0-0.158 0.002-0.315 0.006-0.471v0.023-254.976c0-10.24 8.192-18.944 18.432-18.944h197.632c10.24 0 18.432 8.192 18.432 18.944v254.976c0 0.039 0 0.086 0 0.132 0 10.257-8.207 18.597-18.412 18.812h-98.836v59.392h263.68v-59.392h-69.632c-10.19-0.033-18.437-8.301-18.437-18.496 0-0.158 0.002-0.315 0.006-0.471v0.023-254.976c0-10.24 8.192-18.944 18.432-18.944h197.632c10.24 0 18.432 8.192 18.432 18.944v254.976c0 0.039 0 0.086 0 0.132 0 10.257-8.207 18.597-18.412 18.812h-69.14v59.392h264.192v-59.392h-100.352c-10.19-0.033-18.437-8.301-18.437-18.496 0-0.158 0.002-0.315 0.006-0.471v0.023-254.976c0-10.24 8.192-18.944 18.432-18.944h197.632c10.24 0 18.432 8.192 18.432 18.944v254.976c0 0.019 0 0.042 0 0.064 0 10.144-8.224 18.368-18.368 18.368-0.023 0-0.045 0-0.068 0h0.003l-0.512 0.512z" />
<glyph unicode="&#xe941;" glyph-name="tianjiashebei-2" d="M736 672h128c35.346 0 64-28.654 64-64v0-416c0-35.346-28.654-64-64-64v0h-704c-35.346 0-64 28.654-64 64v0 576c0 35.346 28.654 64 64 64v0h512c35.346 0 64-28.654 64-64v0-96zM672 768h-512v-96h512v96zM864 608h-704v-416h704v416z" />
<glyph unicode="&#xe942;" glyph-name="tuopu" d="M768 680.727c64.266 0 116.364 52.098 116.364 116.364s-52.098 116.364-116.364 116.364v0c-64.266 0-116.364-52.098-116.364-116.364s52.098-116.364 116.364-116.364v0zM768 866.909c38.56 0 69.818-31.259 69.818-69.818s-31.259-69.818-69.818-69.818v0c-38.56 0-69.818 31.259-69.818 69.818s31.259 69.818 69.818 69.818v0zM256 308.364c64.266 0 116.364 52.098 116.364 116.364s-52.098 116.364-116.364 116.364v0c-64.266 0-116.364-52.098-116.364-116.364s52.098-116.364 116.364-116.364v0zM256 494.545c38.56 0 69.818-31.259 69.818-69.818s-31.259-69.818-69.818-69.818v0c-38.56 0-69.818 31.259-69.818 69.818s31.259 69.818 69.818 69.818v0zM768 308.364c64.266 0 116.364 52.098 116.364 116.364s-52.098 116.364-116.364 116.364v0c-64.266 0-116.364-52.098-116.364-116.364s52.098-116.364 116.364-116.364v0zM768 494.545c38.56 0 69.818-31.259 69.818-69.818s-31.259-69.818-69.818-69.818v0c-38.56 0-69.818 31.259-69.818 69.818s31.259 69.818 69.818 69.818v0zM768-17.455c64.266 0 116.364 52.098 116.364 116.364s-52.098 116.364-116.364 116.364v0c-64.266 0-116.364-52.098-116.364-116.364s52.098-116.364 116.364-116.364v0zM768 168.727c38.56 0 69.818-31.259 69.818-69.818s-31.259-69.818-69.818-69.818v0c-38.56 0-69.818 31.259-69.818 69.818s31.259 69.818 69.818 69.818v0zM698.182 401.455h-372.364v46.545h372.364v-46.545zM698.182 52.364h-139.636q-28.905 0-49.338 20.48-20.48 20.433-20.48 49.338v605.091q0 28.905 20.48 49.338 20.433 20.48 49.338 20.48h108.591v-46.545h-108.591q-9.635 0-16.477-6.796-6.796-6.842-6.796-16.477v-605.091q0-9.635 6.796-16.477 6.842-6.796 16.477-6.796h139.636v-46.545z" />
<glyph unicode="&#xe943;" glyph-name="tupian" d="M922.965 768v-480.555l-137.685 137.003c-8.268 8.226-19.668 13.311-32.256 13.311s-23.988-5.085-32.258-13.313l0.002 0.002c-2.088-2.167-3.997-4.538-5.686-7.068l-0.116-0.185-19.584-30.421c-8.269-12.693-22.393-20.967-38.45-20.967-9.137 0-17.648 2.679-24.791 7.295l0.18-0.109c-3.584 2.176-7.253 5.803-10.112 8.704l-163.84 195.669c-15.915 19.584-44.885 21.76-64.469 5.803-0.725-0.725-2.176-1.451-2.901-2.901l-289.92-289.152v476.885c-0.001 0.114-0.001 0.25-0.001 0.385 0 50.215 40.707 90.923 90.923 90.923 0.135 0 0.271 0 0.406-0.001h639.254c50.005 0 91.307-41.301 91.307-91.307zM693.248 275.883l19.541 19.541c8.34 8.066 19.718 13.037 32.256 13.037s23.916-4.971 32.269-13.050l-0.013 0.012 145.664-144.939v-22.485c0.001-0.114 0.001-0.25 0.001-0.385 0-50.215-40.707-90.923-90.923-90.923-0.135 0-0.271 0-0.406 0.001h-639.254c-0.114-0.001-0.25-0.001-0.385-0.001-50.215 0-90.923 40.707-90.923 90.923 0 0.135 0 0.271 0.001 0.406v-0.021 50.773l292.096 270.293c8.056 7.475 18.884 12.061 30.782 12.061 12.632 0 24.056-5.169 32.274-13.506l0.005-0.005 172.459-171.733c18.133-17.408 47.147-17.408 64.555 0zM801.195 658.56c0 35.499-29.013 64.512-64.512 64.512s-64.512-29.013-64.512-64.512c0-35.541 29.013-64.512 64.512-64.512 35.541 0 64.512 29.013 64.512 64.512z" />
<glyph unicode="&#xe944;" glyph-name="wangluotuopu" d="M384 800c0 17.664 14.336 32 32 32h192c17.664 0 32-14.336 32-32v-192c0-17.664-14.336-32-32-32h-64v-128h192c35.328 0 64-28.672 64-64v-64h64c17.664 0 32-14.336 32-32v-192c0-17.664-14.336-32-32-32h-192c-17.673 0-32 14.327-32 32v0 192c0 17.664 14.336 32 32 32h64v64h-448v-64h64c17.664 0 32-14.336 32-32v-192c0-17.664-14.336-32-32-32h-192c-17.673 0-32 14.327-32 32v0 192c0 17.664 14.336 32 32 32h64v64c0 35.328 28.672 64 64 64h192v128h-64c-17.673 0-32 14.327-32 32v0 192zM448 640h128v128h-128v-128zM192 256v-128h128v128h-128zM704 256v-128h128v128h-128z" />
<glyph unicode="&#xe945;" glyph-name="wangqiaogailan" d="M949.248 582.016l-44.736-45.888c-111.168 115.648-250.88 177.536-393.408 177.536-141.76 0-280.768-61.248-391.68-175.616l-44.608 45.824c121.408 124.672 275.904 193.792 436.288 193.792 161.152 0 316.416-69.824 438.144-195.648zM824.128 453.696l-44.672-45.824c-77.632 80.576-172.8 122.496-268.352 122.496-94.848 0-189.248-41.28-266.496-120.576l-44.736 45.824c87.68 89.344 197.376 138.752 311.232 138.752 114.56 0 225.088-50.112 312.96-140.672zM694.528 320.768l-44.672-45.824c-42.88 44.16-92.096 64.96-138.88 64.96-46.016 0-94.4-20.224-136.832-62.976l-44.672 45.76c52.416 52.48 115.904 81.28 181.568 81.28 66.432 0 130.688-29.504 183.488-83.2zM512 96c35.346 0 64 28.654 64 64s-28.654 64-64 64v0c-35.346 0-64-28.654-64-64s28.654-64 64-64v0z" />
<glyph unicode="&#xe946;" glyph-name="wifi" d="M512 558.080c113.28 0 221.952-42.368 302.016-117.888l-56.704-53.504c-135.488 127.744-355.136 127.744-490.624 0l-56.704 53.504c80.064 75.52 188.736 117.952 302.016 117.952zM950.848 569.216l-56.704-53.504c-101.312 95.488-238.848 149.248-382.144 149.248-143.36 0-280.832-53.696-382.208-149.248l-56.704 53.504c242.368 228.48 635.328 228.48 877.696 0zM672.192 306.432c-88.512 83.392-231.872 83.392-320.384 0l160.192-151.040 160.192 151.040z" />
<glyph unicode="&#xe947;" glyph-name="xia" d="M512.717 284.672c-8.383 0.010-15.959 3.457-21.397 9.006l-0.005 0.005-260.096 265.421c-5.568 5.451-9.020 13.045-9.020 21.445 0 16.57 13.433 30.003 30.003 30.003 8.617 0 16.385-3.632 21.857-9.449l0.014-0.015 238.643-243.507 238.694 243.507c5.487 5.832 13.255 9.465 21.871 9.465 16.57 0 30.003-13.433 30.003-30.003 0-8.4-3.452-15.994-9.015-21.44l-0.005-0.005-260.096-265.421c-5.451-5.563-13.041-9.011-21.437-9.011-0.006 0-0.011 0-0.017 0h0.001z" />
<glyph unicode="&#xe948;" glyph-name="xiangmu-1" d="M989.888 550.4h-546.176c-18.84 0-34.112-15.272-34.112-34.112v0-136.576c0-18.816 15.296-34.112 34.112-34.112h546.176c18.84 0 34.112 15.272 34.112 34.112v0 136.576c0 18.84-15.272 34.112-34.112 34.112v0zM443.712 618.688h546.176c18.84 0 34.112 15.272 34.112 34.112v0 102.4c-0.109 37.671-30.617 68.179-68.278 68.288h-512.010c0 0 0 0 0 0-18.84 0-34.112-15.272-34.112-34.112 0-0.023 0-0.045 0-0.067v0.003-136.512c0-18.88 15.296-34.112 34.112-34.112zM307.2 823.488h-238.912c-37.671-0.109-68.179-30.617-68.288-68.278v-614.41c0-37.568 30.72-68.288 68.288-68.288h238.912c0 0 0 0 0 0 18.84 0 34.112 15.272 34.112 34.112 0 0.023 0 0.045 0 0.067v-0.003 682.624c0 0.019 0 0.041 0 0.064 0 18.84-15.272 34.112-34.112 34.112 0 0 0 0 0 0v0zM409.6 243.2v-136.512c0-18.88 15.296-34.176 34.112-34.176h512c37.671 0.109 68.179 30.617 68.288 68.278v102.41c0 18.84-15.272 34.112-34.112 34.112v0h-546.176c-18.84 0-34.112-15.272-34.112-34.112v0z" />
<glyph unicode="&#xe949;" glyph-name="xiangmu" d="M583.595 246.315v-116.395c0.097-72.271 58.67-130.829 130.937-130.901h116.316c72.289 0.073 130.871 58.655 130.944 130.937v116.359c-0.097 72.271-58.67 130.829-130.937 130.901h-28.508c-6.886 32.292-24.863 59.551-49.67 78.222l-0.336 0.242c-13.739 13.227-44.459 26.027-78.165 26.027h-108.117c23.35 10.449 42.495 26.743 56.107 47.058l0.298 0.473 65.707 61.952c23.717 23.512 38.4 56.104 38.4 92.124 0 0.042 0 0.085 0 0.127v-0.006 0.384c0 34.987-13.653 67.84-38.4 92.544l-82.219 82.261c-23.512 23.717-56.104 38.4-92.124 38.4-0.042 0-0.085 0-0.127 0h-0.378c-34.987 0-67.84-13.653-92.587-38.4l-82.176-82.261c-23.691-23.495-38.358-56.059-38.358-92.048 0-0.189 0-0.379 0.001-0.568v0.029c0-34.944 13.653-67.84 38.357-92.587l82.261-82.219c17.323-17.408 39.595-29.909 64.469-35.285l-133.291 8.021c-32.341 0-63.445-11.947-87.509-33.664-23.134-20.796-38.762-49.541-42.565-81.904l-0.059-0.614-26.581 11.691c-72.293-0.049-130.89-58.616-130.987-130.892v-116.404c0.097-72.286 58.694-130.853 130.982-130.901h116.314c72.289 0.073 130.871 58.655 130.944 130.937v116.359c-0.122 72.297-58.758 130.859-131.072 130.859 0 0 0 0 0 0h-20.267c10.446 23.55 33.606 39.686 60.539 39.723h322.565c26.965 0 50.133-16.171 60.373-39.296l-20.139-0.427c-72.274-0.073-130.847-58.631-130.944-130.892v-0.009z" />
<glyph unicode="&#xe94a;" glyph-name="xiangqing" d="M512 0c247.424 0 448 200.576 448 448s-200.576 448-448 448-448-200.576-448-448 200.576-448 448-448zM473.6 704h76.8v-76.8h-76.8v76.8zM480.341 544h64v-352h-64v352z" />
<glyph unicode="&#xe94b;" glyph-name="xiaoxi-1" d="M777.536 625.216c-15.531 31.288-34.687 58.13-57.413 81.479l0.069-0.071c-59.904 61.888-143.68 101.76-236.032 112.32-14.597 1.746-31.502 2.743-48.64 2.743-16.526 0-32.836-0.927-48.881-2.731l1.969 0.18c-92.8-10.048-177.088-49.728-237.376-111.68-22.747-23.239-41.983-50.038-56.77-79.458l-0.83-1.822c-18.648-36.715-29.589-80.051-29.632-125.938v-0.014c0-56.256 17.088-111.68 49.472-160.384 16.448-24.64 43.2-55.68 67.84-77.568l-11.072-87.68-0.128-0.32c-0.389-0.912-0.762-2.021-1.052-3.162l-0.036-0.166c-0.17-0.832-0.307-1.84-0.38-2.866l-0.004-0.078v-0.512l-0.192-1.024c-0.077-0.496-0.123-1.073-0.128-1.659v-0.005l0.128-1.92 0.128-0.96c1.377-14.462 13.462-25.684 28.168-25.684 5.257 0 10.178 1.434 14.395 3.931l-0.131-0.072h0.064l0.32 0.192 0.64 0.32c0.481 0.273 0.878 0.527 1.262 0.799l-0.046-0.031 105.984 53.184c34.724-10.115 74.612-15.934 115.86-15.934 17.29 0 34.341 1.022 51.096 3.010l-2.028-0.196c34.781 4.066 66.43 11.761 96.454 22.818l-2.886-0.93c-20.756 6.991-35.439 26.277-35.439 48.992 0 1.747 0.087 3.473 0.256 5.175l-0.017-0.215c-31.719-10.473-68.23-16.514-106.152-16.514-0.368 0-0.737 0.001-1.105 0.002h0.057c-15.818 0.025-31.367 1.071-46.614 3.075l1.814-0.195-2.496 0.32c-20.025 2.673-37.779 6.524-54.986 11.649l2.506-0.641c-3.248 1.077-6.986 1.698-10.87 1.698-6.736 0-13.036-1.868-18.41-5.115l0.16 0.090-1.408-0.704-67.968-40.064h-0.128c-1.408-0.896-2.176-1.152-2.88-1.152-2.419 0.071-4.352 2.049-4.352 4.478 0 0.001 0 0.001 0 0.002v0l2.56 10.176c4.42 19.367 5.39 23.058 6.368 26.744l-3.552-15.736 3.008 11.456 1.792 6.656 5.248 20.16c0.835 2.506 1.317 5.392 1.317 8.39 0 9.025-4.365 17.031-11.099 22.021l-0.074 0.052c-10.056 7.526-18.924 15.034-27.323 23.029l0.123-0.117c-14.311 13.524-27.023 28.471-37.993 44.692l-0.599 0.94c-24.308 35.48-38.929 79.267-39.232 126.451v0.077c0 34.304 7.872 67.712 23.36 99.2 11.52 23.488 27.072 45.44 46.208 65.088 49.6 50.944 119.36 83.584 196.352 91.968 11.653 1.324 25.16 2.079 38.843 2.079 14.502 0 28.806-0.848 42.865-2.498l-1.707 0.163c76.672-8.704 145.984-41.6 195.2-92.416 19.072-19.712 34.56-41.664 46.016-65.28 14.391-28.692 22.816-62.52 22.816-98.315 0-2.967-0.058-5.921-0.173-8.86l0.013 0.423-0.128-2.176c7.653 4.742 16.934 7.553 26.873 7.553 15.505 0 29.411-6.84 38.867-17.668l0.052-0.061c0.562 6.664 0.882 14.421 0.882 22.254 0 45.373-10.75 88.235-29.843 126.177l0.737-1.615zM726.208 453.76c-9.306-9.34-15.059-22.224-15.059-36.452 0-26.592 20.097-48.491 45.931-51.335l0.232-0.021c35.257-6.729 65.605-24.317 88.208-49.091l0.112-0.125c2.228-2.194 5.288-3.549 8.665-3.549 6.822 0 12.352 5.53 12.352 12.352 0 4.144-2.041 7.811-5.172 10.052l-0.037 0.025c-23.53 22.062-40.291 51.086-46.993 83.777l-0.175 1.023c-0.226 3.83-0.842 7.415-1.814 10.851l0.086-0.355c-6.2 22.071-26.146 37.983-49.808 37.983-14.266 0-27.181-5.784-36.528-15.135v0zM668.096 266.24c-0.295-2.431-0.677-4.54-1.168-6.606l0.080 0.398c-5.372-23.158-25.826-40.154-50.251-40.154-14.278 0-27.2 5.808-36.531 15.191l-0.002 0.002c-9.345 9.346-15.125 22.257-15.125 36.518 0 27.383 21.311 49.789 48.252 51.538l0.153 0.008c34.902 7.121 64.845 24.862 87.102 49.645l0.13 0.147c2.151 1.863 4.976 2.998 8.067 2.998 6.822 0 12.352-5.53 12.352-12.352 0-3.552-1.5-6.755-3.9-9.008l-0.007-0.006c-24.892-22.72-42.477-53.065-49.057-87.324l-0.159-0.996zM871.872 307.84c9.34 9.311 22.228 15.068 36.461 15.068 28.524 0 51.648-23.124 51.648-51.648 0-27.392-21.324-49.803-48.277-51.54l-0.152-0.008c-34.898-7.094-64.843-24.815-87.103-49.582l-0.129-0.146c-2.082-1.655-4.75-2.655-7.651-2.655-6.822 0-12.352 5.53-12.352 12.352 0 3.379 1.357 6.442 3.556 8.672l-0.001-0.001c24.875 22.722 42.441 53.069 48.994 87.327l0.158 0.993 0.448 3.136c1.87 11.024 7.021 20.611 14.399 27.967l0.001 0.001zM661.12 209.664c-1.658 2.084-2.659 4.753-2.659 7.657 0 6.822 5.53 12.352 12.352 12.352 3.35 0 6.389-1.334 8.614-3.499l-0.003 0.003c24.095-26.417 56.803-44.612 93.656-50.133l0.872-0.107c23.138-5.443 40.099-25.911 40.099-50.34 0-28.524-23.124-51.648-51.648-51.648-27.434 0-49.872 21.389-51.548 48.401l-0.007 0.147c-7.117 34.871-24.833 64.79-49.582 87.039l-0.146 0.129z" />
<glyph unicode="&#xe94c;" glyph-name="xiaoxi" d="M839.387 834.523h-656.677c-65.944-0.083-119.369-53.56-119.369-119.515 0-0.026 0-0.051 0-0.077v0.004-391.424c0-65.94 53.434-119.401 119.365-119.442h336.095q139.081-113.298 157.952-128.037c18.834-14.702 26.478-11.374 26.222 0q-0.183 11.374-0.146 128.037h136.558c0.011 0 0.024 0 0.037 0 65.946 0 119.406 53.46 119.406 119.406 0 0.013 0 0.026 0 0.038v-0.002 391.424c0 66.011-53.394 119.589-119.442 119.589zM319.195 450.377c-35.326 0-63.963 28.637-63.963 63.963 0 0.013 0 0.026 0 0.039v-0.002c0 0.002 0 0.005 0 0.008 0 35.326 28.637 63.963 63.963 63.963s63.963-28.637 63.963-63.963c0-0.003 0-0.006 0-0.008v0c0-35.438-28.672-64-63.963-64zM511.086 450.377c-0.011 0-0.024 0-0.037 0-35.326 0-63.963 28.637-63.963 63.963 0 0.013 0 0.026 0 0.039v-0.002c0 35.336 28.646 63.982 63.982 63.982s63.982-28.646 63.982-63.982v0c0-35.438-28.672-64-64-64zM702.976 450.377c-35.326 0-63.963 28.637-63.963 63.963 0 0.013 0 0.026 0 0.039v-0.002c0 35.326 28.637 63.963 63.963 63.963s63.963-28.637 63.963-63.963v0c0-35.438-28.672-64-64-64z" />
<glyph unicode="&#xe94d;" glyph-name="xiaoxi-2" d="M588.8 826.88c4.608 0 8.192-2.24 9.152-3.328v-751.104c-2.377-2.069-5.505-3.33-8.927-3.33-0.079 0-0.158 0.001-0.237 0.002h0.012c-0.109-0.004-0.237-0.007-0.365-0.007-2.698 0-5.144 1.077-6.933 2.825l0.002-0.002-256.192 236.736h-161.088v278.656h161.088l20.608 19.008 235.584 217.728c1.786 1.746 4.233 2.823 6.931 2.823 0.128 0 0.256-0.002 0.384-0.007l-0.018 0.001zM588.8 898.56c-19.648 0-39.616-6.784-55.936-21.824l-235.584-217.728h-144.512c-33.28 0-60.224-25.216-60.224-56.32v-309.44c0-31.040 26.88-56.256 60.16-56.256h144.576l235.584-217.728c16.32-15.104 36.352-21.824 55.936-21.824 41.28 0 80.832 29.952 80.832 75.2v750.72c0 45.248-39.552 75.2-80.832 75.2zM895.616 422.4h-133.12c-19.794 0-35.84 16.046-35.84 35.84s16.046 35.84 35.84 35.84v0h133.12c19.794 0 35.84-16.046 35.84-35.84s-16.046-35.84-35.84-35.84v0zM906.304 696l-115.328-66.56c-5.141-3.019-11.322-4.801-17.92-4.801-19.795 0-35.841 16.047-35.841 35.841 0 13.197 7.132 24.728 17.752 30.948l0.169 0.092 115.328 66.56c5.141 3.019 11.322 4.801 17.92 4.801 19.795 0 35.841-16.047 35.841-35.841 0-13.197-7.132-24.728-17.752-30.948l-0.169-0.092zM870.464 163.52l-115.328 66.56c-10.789 6.312-17.921 17.843-17.921 31.040 0 19.795 16.047 35.841 35.841 35.841 6.598 0 12.779-1.783 18.089-4.893l-0.169 0.092 115.328-66.56c10.789-6.312 17.921-17.843 17.921-31.040 0-19.795-16.047-35.841-35.841-35.841-6.598 0-12.779 1.783-18.089 4.893l0.169-0.092z" />
<glyph unicode="&#xe94e;" glyph-name="xiazaiAPP-1" d="M232.727 774.54v-641.42c0-25.53 20.294-45.824 45.824-45.824h458.17c0.083-0.001 0.182-0.001 0.28-0.001 25.154 0 45.545 20.391 45.545 45.545 0 0.098 0 0.197-0.001 0.295v-0.015 641.396c0.001 0.090 0.001 0.197 0.001 0.303 0 25.154-20.391 45.545-45.545 45.545-0.099 0-0.197 0-0.295-0.001h-458.132c-0.090 0.001-0.197 0.001-0.303 0.001-25.154 0-45.545-20.391-45.545-45.545 0-0.099 0-0.197 0.001-0.295v0.015zM289.676 774.54h435.27c6.54 0 11.124-5.236 11.124-11.124v-547.188c-0.092-1.406-1.203-2.525-2.597-2.629l-0.009-0.001h-452.329c-1.403 0.105-2.514 1.224-2.606 2.621v546.545c0 6.54 5.236 11.776 11.124 11.776zM470.97 133.097c-2.466 4.911-3.91 10.701-3.91 16.828 0 0.065 0 0.129 0 0.194v-0.010c0 22.249 17.687 39.936 39.913 39.936 22.272 0 39.936-17.687 39.936-39.936 0-5.888-1.303-11.776-3.933-17.012-6.581-13.96-20.495-23.471-36.641-23.575h-0.014c-15.057 0-28.788 9.821-35.328 23.575zM696.785 246.97h-378.298c-0.007 0-0.015 0-0.023 0-3.239 0-5.865 2.626-5.865 5.865 0 0.016 0 0.033 0 0.049v-0.003 475.183c0 6.563 5.236 11.124 11.776 11.124h366.545c6.563 0 11.148-5.236 11.148-11.124v-475.183c0-3.281-1.978-5.911-5.236-5.911z" />
<glyph unicode="&#xe94f;" glyph-name="xiazaiAPP" d="M232.727 774.54v-641.42c0-25.53 20.294-45.824 45.824-45.824h458.17c0.083-0.001 0.182-0.001 0.28-0.001 25.154 0 45.545 20.391 45.545 45.545 0 0.098 0 0.197-0.001 0.295v-0.015 641.396c0.001 0.090 0.001 0.197 0.001 0.303 0 25.154-20.391 45.545-45.545 45.545-0.099 0-0.197 0-0.295-0.001h-458.132c-0.090 0.001-0.197 0.001-0.303 0.001-25.154 0-45.545-20.391-45.545-45.545 0-0.099 0-0.197 0.001-0.295v0.015zM289.676 774.54h435.27c6.54 0 11.124-5.236 11.124-11.124v-547.188c-0.092-1.406-1.203-2.525-2.597-2.629l-0.009-0.001h-452.329c-1.403 0.105-2.514 1.224-2.606 2.621v546.545c0 6.54 5.236 11.776 11.124 11.776zM470.97 133.097c-2.466 4.911-3.91 10.701-3.91 16.828 0 0.065 0 0.129 0 0.194v-0.010c0 22.249 17.687 39.936 39.913 39.936 22.272 0 39.936-17.687 39.936-39.936 0-5.888-1.303-11.776-3.933-17.012-6.581-13.96-20.495-23.471-36.641-23.575h-0.014c-15.057 0-28.788 9.821-35.328 23.575zM696.785 246.97h-378.298c-0.007 0-0.015 0-0.023 0-3.239 0-5.865 2.626-5.865 5.865 0 0.016 0 0.033 0 0.049v-0.003 475.183c0 6.563 5.236 11.124 11.776 11.124h366.545c6.563 0 11.148-5.236 11.148-11.124v-475.183c0-3.281-1.978-5.911-5.236-5.911z" />
<glyph unicode="&#xe950;" glyph-name="xuanzhong" d="M512 0c247.424 0 448 200.576 448 448s-200.576 448-448 448v0c-247.424 0-448-200.576-448-448s200.576-448 448-448v0zM288 434.79l45.21 45.21 114.79-114.739 242.688 242.739 45.312-45.261-288-288-160 160.051z" />
<glyph unicode="&#xe951;" glyph-name="xunitiyan-1" d="M882.269 688.477l-33.466-33.489-99.072 99.165 33.466 33.513c8.455 8.445 20.129 13.667 33.024 13.667s24.569-5.222 33.024-13.668v0l33.001-33.047c8.433-8.477 13.646-20.165 13.646-33.071s-5.213-24.593-13.648-33.073l0.002 0.002zM535.668 341.597l-4.119-4.049-4.631-4.864-121.833-22.109 22.668 121.204 4.794 4.864 4.096 4.119 280.157 280.367 99.002-99.095-280.087-280.436zM364.73 269.824l198.633 36.561 253.254 257.629v-297.216c0-95.075-77.073-172.148-172.148-172.148h-344.25c-95.065 0.013-172.125 77.082-172.125 172.148v0 344.273c0 95.067 77.060 172.135 172.124 172.148h344.275c19.735 0 38.609-3.491 56.25-9.612l-299.101-303.709-36.887-200.076z" />
<glyph unicode="&#xe952;" glyph-name="xunitiyan" d="M882.269 688.477l-33.466-33.489-99.072 99.165 33.466 33.513c8.455 8.445 20.129 13.667 33.024 13.667s24.569-5.222 33.024-13.668v0l33.001-33.047c8.433-8.477 13.646-20.165 13.646-33.071s-5.213-24.593-13.648-33.073l0.002 0.002zM535.668 341.597l-4.119-4.049-4.631-4.864-121.833-22.109 22.668 121.204 4.794 4.864 4.096 4.119 280.157 280.367 99.002-99.095-280.087-280.436zM364.73 269.824l198.633 36.561 253.254 257.629v-297.216c0-95.075-77.073-172.148-172.148-172.148h-344.25c-95.065 0.013-172.125 77.082-172.125 172.148v0 344.273c0 95.067 77.060 172.135 172.124 172.148h344.275c19.735 0 38.609-3.491 56.25-9.612l-299.101-303.709-36.887-200.076z" />
<glyph unicode="&#xe953;" glyph-name="yaunchengfangwen" horiz-adv-x="1034" d="M350.122-63.928c-14.638 0-26.505 11.867-26.505 26.505s11.867 26.505 26.505 26.505h65.973v85.671h-320.235c-52.866 0-95.81 43.017-95.81 95.882v693.481c0 52.866 42.944 95.81 95.81 95.81h832.163c52.866 0 95.81-43.017 95.81-95.81v-693.481c0-52.866-42.944-95.882-95.81-95.882h-320.235v-85.671h65.973c14.638 0 26.505-11.867 26.505-26.505s-11.867-26.505-26.505-26.505h-323.639zM554.777-10.917v85.671h-85.671v-85.671h85.599zM52.988 170.636c0-23.681 19.263-42.872 42.872-42.872h832.163c23.677 0 42.872 19.194 42.872 42.872v0 42.799h-917.907v-42.799zM970.895 266.446v597.671c-0.041 23.646-19.22 42.799-42.872 42.799 0 0 0 0 0 0h-832.163c0 0 0 0 0 0-23.652 0-42.831-19.153-42.872-42.795v-597.675h917.907zM629.296 420.698c-0.046 0-0.101 0-0.156 0-2.39 0-4.707 0.317-6.909 0.912l0.185-0.043-92.986 24.984c-0.479-0.117-1.071-0.219-1.673-0.284l-0.065-0.006-5.069-0.579 0.941 3.114c-9.168 4.152-15.43 13.221-15.43 23.754 0 2.474 0.346 4.868 0.991 7.135l-0.045-0.183 25.347 94.724c3.082 11.387 13.322 19.626 25.486 19.626 0.053 0 0.106 0 0.159 0h-0.008c14.615-0.083 26.431-11.95 26.431-26.577 0-2.394-0.317-4.714-0.91-6.921l0.043 0.186-9.27-34.616c15.218 15.728 24.603 37.182 24.622 60.828v0.004c0 33.023-18.394 63.149-48.086 78.647l-2.535 1.304 14.266 51.924 3.621-1.521c50.825-22.352 85.671-72.262 85.671-130.311 0-0.015 0-0.030 0-0.045v0.002c0-40.627-17.67-78.792-48.665-105.659l30.923-8.256c11.47-3.084 19.775-13.391 19.775-25.637 0-14.638-11.867-26.505-26.505-26.505-0.053 0-0.105 0-0.158 0h0.008zM457.374 455.532c-51.869 21.809-87.627 72.201-87.627 130.944 0 0.072 0 0.145 0 0.217v-0.011c0 40.554 17.598 78.574 48.521 105.369l-29.257 7.821c-11.396 3.136-19.629 13.407-19.629 25.6 0 14.64 11.868 26.508 26.508 26.508 2.447 0 4.816-0.332 7.066-0.952l-0.186 0.044 91.248-24.478c1.223 0.326 2.678 0.582 4.169 0.717l0.104 0.008 4.78 0.435-1.086-3.983c4.924-2.245 8.907-5.793 11.587-10.428 2.224-3.783 3.538-8.333 3.538-13.19 0-2.47-0.34-4.86-0.975-7.127l0.044 0.186-25.347-94.724c-3.081-11.431-13.356-19.705-25.562-19.705-9.779 0-18.318 5.311-22.89 13.205l-0.068 0.127c-2.258 3.799-3.592 8.376-3.592 13.265 0 2.443 0.333 4.808 0.957 7.052l-0.044-0.185 10.139 37.585c-17.308-16.656-27.012-39.106-27.012-63.149 0-33.892 19.119-64.38 49.824-79.588l2.462-1.231-14.122-51.779-3.549 1.448z" />
<glyph unicode="&#xe954;" glyph-name="youbian" d="M413.44 162.56l-58.816 58.88 226.56 226.56-226.56 226.56 58.88 58.88 285.376-285.44-285.44-285.44z" />
<glyph unicode="&#xe955;" glyph-name="youxian" d="M678.72 84.736c14.86-0.733 26.63-12.96 26.63-27.936s-11.771-27.203-26.565-27.933l-0.065-0.003h-335.232c-15.429 0-27.936 12.507-27.936 27.936s12.507 27.936 27.936 27.936v0h335.232zM942.656 850.816c-10.106 10.084-24.056 16.32-39.463 16.32-0.009 0-0.018 0-0.026 0h-782.399c-30.83-0.036-55.808-25.037-55.808-55.872v0-614.784c0.036-30.807 25.001-55.772 55.804-55.808h782.404c30.848 0 55.872 24.96 55.872 55.808v614.784c0 0.012 0 0.026 0 0.041 0 15.413-6.263 29.364-16.382 39.446l-0.002 0.002zM464.576 411.776h-71.168c-42.678 0.085-78.697 28.496-90.262 67.429l-0.17 0.667h-122.496v53.248h122.624c11.781 39.547 47.786 67.901 90.424 67.968h71.048v-189.376zM843.584 482.88h-141.76v-71.232h-189.376v189.376h189.376v-64.96h141.76v-53.184z" />
<glyph unicode="&#xe956;" glyph-name="zhanghao" d="M736 640c0-123.712-100.288-224-224-224s-224 100.288-224 224v0c0 123.712 100.288 224 224 224s224-100.288 224-224v0zM672 640c0 88.366-71.634 160-160 160s-160-71.634-160-160v0c0-88.366 71.634-160 160-160s160 71.634 160 160v0zM893.632 265.408c20.522-10.237 34.371-31.079 34.371-55.156 0-0.229-0.001-0.458-0.004-0.687v0.035-145.6c0-17.673-14.327-32-32-32v0h-768c-17.673 0-32 14.327-32 32v0 145.6c-0.002 0.194-0.003 0.423-0.003 0.652 0 24.077 13.849 44.919 34.016 54.995l0.356 0.161c111.474 54.639 242.599 86.592 381.186 86.592 0.156 0 0.313 0 0.469 0h-0.024c136.512 0 265.6-31.168 381.632-86.592zM512 288c-125.888 0-244.864-28.544-352-79.36v-112.64h704v112.64c-102.86 50.082-223.776 79.36-351.53 79.36-0.165 0-0.33 0-0.496 0h0.025z" />
<glyph unicode="&#xe957;" glyph-name="zhedie" d="M903.68 503.936h-559.488c-30.91 0-55.968-25.058-55.968-55.968s25.058-55.968 55.968-55.968v0h559.616c30.928 0 56 25.072 56 56s-25.072 56-56 56v0zM120.32 503.936c-30.91 0-55.968-25.058-55.968-55.968s25.058-55.968 55.968-55.968v0c30.928 0 56 25.072 56 56s-25.072 56-56 56v0zM120.32 783.744c-30.91 0-55.968-25.058-55.968-55.968s25.058-55.968 55.968-55.968v0c30.928 0 56 25.072 56 56s-25.072 56-56 56v0zM344.128 671.872h559.616c30.893 0 55.936 25.043 55.936 55.936s-25.043 55.936-55.936 55.936h-559.616c-30.893 0-55.936-25.043-55.936-55.936s25.043-55.936 55.936-55.936v0zM903.744 224.128h-559.616c-30.103-1.050-54.107-25.706-54.107-55.968s24.004-54.918 54.011-55.965l0.096-0.003h559.616c30.928 0 56 25.072 56 56s-25.072 56-56 56v0zM120.256 224.128c-30.928 0-56-25.072-56-56s25.072-56 56-56v0c30.928 0 56 25.072 56 56s-25.072 56-56 56v0z" />
<glyph unicode="&#xe958;" glyph-name="zhengwangpeizhi" d="M70.4 454.4c0 243.889 197.711 441.6 441.6 441.6s441.6-197.711 441.6-441.6v0-12.8c0-243.889-197.711-441.6-441.6-441.6s-441.6 197.711-441.6 441.6v0 12.8zM888.73 416h-192c-6.665-131.608-52.653-251.312-126.339-348.938l1.155 1.597c172.75 28.408 304.795 170.761 317.117 346.146l0.067 1.194zM696.73 480h192c-12.389 176.579-144.434 318.933-314.992 347.043l-2.192 0.298c72.549-96.023 118.554-215.727 125.174-345.826l0.061-1.515zM632.678 480c-6.89 121.862-51.231 232.191-121.58 320.974l0.902-1.179c-69.45-87.603-113.792-197.933-120.611-318.3l-0.068-1.495h241.357zM327.219 416h-192c12.394-176.594 144.464-318.955 315.044-347.043l2.191-0.298c-72.549 96.023-118.554 215.727-125.174 345.826l-0.061 1.515zM327.219 480c6.681 131.614 52.686 251.317 126.39 348.937l-1.155-1.596c-172.75-28.408-304.795-170.761-317.117-346.146l-0.067-1.194h192zM632.678 416h-241.357c6.349-113.664 46.592-225.69 120.678-319.795 69.447 87.604 113.788 197.934 120.611 318.3l0.068 1.496z" />
<glyph unicode="&#xe959;" glyph-name="zhinengguanli" d="M927.693 688.026l-385.69 222.669c-18.586 10.752-41.472 10.752-60.006 0l-385.69-222.72v-445.338c0-21.453 11.418-41.216 30.003-51.968l385.69-222.669 385.69 222.72c18.586 10.701 30.003 30.464 30.003 51.917v445.389zM511.949 485.018l-319.693 184.525 319.744 184.627 319.693-184.627-319.693-184.525zM544 429.517l319.693 184.576v-369.101l-319.693-184.525v369.050zM480 429.517v-369.050l-319.744 184.525v369.152l319.744-184.627z" />
<glyph unicode="&#xe95a;" glyph-name="zhongduan" d="M160 256h320v-128h-288v-64h640v64h-288v128h320c35.328 0 64 28.672 64 64v448c0 35.328-28.672 64-64 64h-704c-35.328 0-64-28.672-64-64v-448c0-35.328 28.672-64 64-64zM160 768h704v-448h-704v448z" />
<glyph unicode="&#xe95b;" glyph-name="zixiangmu" d="M853.312 795.712q0-5.952-1.6-11.904-1.664-5.952-4.928-11.776-3.264-5.888-8.128-11.584-4.864-5.76-11.328-11.264-6.4-5.504-14.272-10.752-7.936-5.312-17.28-10.24-9.28-4.992-19.904-9.6t-22.528-8.832q-11.84-4.224-24.832-8-12.928-3.84-26.88-7.104-13.952-3.328-28.736-6.144-14.72-2.816-30.272-5.12-15.488-2.304-31.552-4.032-16-1.728-32.448-2.88t-33.152-1.792q-16.704-0.576-33.472-0.576t-33.472 0.64q-16.64 0.576-33.088 1.728t-32.512 2.88q-16 1.728-31.552 4.032-15.488 2.304-30.272 5.12t-28.736 6.144q-13.952 3.264-26.88 7.040-12.992 3.84-24.832 8.064t-22.528 8.832q-10.624 4.608-19.904 9.6-9.344 4.928-17.28 10.24-7.872 5.248-14.272 10.752t-11.328 11.264q-4.864 5.76-8.128 11.52-3.264 5.888-4.928 11.84-1.6 5.952-1.6 11.904 0 6.016 1.6 11.968 1.664 5.888 4.928 11.776t8.128 11.52q4.864 5.76 11.328 11.264 6.4 5.568 14.272 10.816 7.936 5.248 17.28 10.24 9.28 4.992 19.904 9.6 10.688 4.608 22.528 8.832t24.832 8q12.928 3.84 26.88 7.104 13.952 3.328 28.736 6.144t30.272 5.12q15.488 2.24 31.552 4.032 16 1.728 32.512 2.88 16.448 1.152 33.088 1.728 16.704 0.64 33.472 0.64t33.472-0.64q16.64-0.576 33.088-1.728t32.512-2.88q16-1.792 31.552-4.032 15.488-2.304 30.272-5.12t28.8-6.144q13.888-3.328 26.88-7.040 12.928-3.84 24.768-8.064 11.904-4.224 22.528-8.832t19.968-9.6q9.28-4.992 17.216-10.24 7.872-5.248 14.272-10.816 6.4-5.504 11.328-11.2 4.864-5.76 8.128-11.584 3.264-5.888 4.928-11.776 1.6-5.952 1.6-11.968zM347.712 249.6c-68.224 14.912-130.112 36.288-177.024 66.112v-219.712c0-55.488 106.624-102.4 249.6-117.312-51.2 51.2-83.2 121.6-83.2 198.4 2.112 25.6 6.4 49.024 10.624 72.512zM170.688 652.8v-206.912c0-51.2 89.6-96 215.424-113.088 51.2 74.688 134.4 123.712 232.576 123.712 72.512 0 136.512-27.712 187.712-72.512 29.888 17.088 46.912 36.288 46.912 59.712v209.088c-81.024-51.2-211.2-83.2-341.312-83.2s-260.288 32-341.312 83.2zM546.112 349.888l-130.112-117.376h437.312v59.776h-307.2v57.6zM416 155.712v-57.6h305.088v-59.712l132.224 117.312h-437.312z" />
<glyph unicode="&#xe95c;" glyph-name="zizhanghao" d="M384 896c33.664 0 65.408-8 93.568-22.144l-40.32-52.032c-15.772 6.46-34.076 10.21-53.257 10.21-79.529 0-144-64.471-144-144 0-78.497 62.808-142.324 140.911-143.968l0.153-0.003v-64c-112.787 2.691-203.19 94.76-203.19 207.944 0 114.219 92.064 206.935 206.034 207.991l0.1 0.001zM640 427.904c-114.875 0-208 93.125-208 208s93.125 208 208 208v0c114.875 0 208-93.125 208-208s-93.125-208-208-208v0zM640 491.904c79.529 0 144 64.471 144 144s-64.471 144-144 144v0c-79.529 0-144-64.471-144-144s64.471-144 144-144v0zM34.56 356.096c101.506 48.79 220.641 77.451 346.431 77.824h0.129v-64c-113.28-0.448-220.352-25.792-317.056-70.656v-107.264h118.848v-64h-150.912c-17.673 0-32 14.327-32 32v0 140.224c0 23.808 13.12 45.824 34.56 55.872zM1024 222.848c0.003 0.223 0.005 0.487 0.005 0.751 0 24.133-13.972 45.003-34.268 54.961l-0.36 0.16c-102.169 49.084-222.124 77.76-348.775 77.76-0.211 0-0.422 0-0.633 0h0.033c-0.193 0-0.421 0-0.65 0-126.657 0-246.616-28.677-353.739-79.891l4.949 2.131c-20.622-10.13-34.565-30.982-34.565-55.090 0-0.275 0.002-0.549 0.005-0.824v0.042-158.848c0-17.673 14.327-32 32-32v0h704c17.673 0 32 14.327 32 32v0 158.848zM960 221.824v-125.824h-640v125.824c93.615 44.606 203.444 70.656 319.357 70.656 0.226 0 0.452 0 0.677 0h-0.035c114.368 0 222.464-25.408 320-70.656z" />
<glyph unicode="&#xe95d;" glyph-name="chongqi" d="M510.208 40.192c-227.109 0.327-411.128 184.347-411.456 411.424v0.032c0.327 227.109 184.347 411.128 411.424 411.456h0.032c227.081-0.364 411.064-184.369 411.392-411.424v-0.032c-0.327-227.086-184.31-411.092-411.357-411.456h-0.035zM548.608 729.6h-75.008v-267.008h75.008v267.008zM779.008 515.648c-5.75 23.563-13.919 44.267-24.477 63.473l0.669-1.329c-10.944 20.16-21.952 38.4-36.544 54.912q-14.656 16.448-42.048 40.192 0-1.792-40.256-43.904c64-40.192 98.752-104.192 98.752-184.64-0.507-123.012-100.091-222.597-223.055-223.104h-0.049c-123.012 0.507-222.597 100.091-223.104 223.055v0.049c0 76.8 38.4 144.448 98.752 184.64l-40.192 42.112q-32.96-27.456-47.552-43.904c-13.327-15.37-24.918-32.813-34.124-51.635l-0.628-1.421c-9.152-18.24-16.448-38.4-21.952-60.352-4.66-17.883-7.336-38.412-7.336-59.567 0-1.559 0.015-3.114 0.043-4.666l-0.003 0.233c0-38.4 7.296-74.944 21.952-107.84 14.592-32.96 34.752-62.208 60.352-87.808s54.848-43.84 87.744-60.352c32.896-16.448 69.504-21.888 107.904-21.888s74.944 7.296 107.84 21.888c34.063 15.302 63.156 35.604 87.799 60.343l0.009 0.009c25.6 25.6 43.904 54.848 60.352 87.808 13.879 31.093 21.962 67.38 21.962 105.554 0 0.804-0.004 1.607-0.011 2.409l0.001-0.123c-5.504 21.952-7.36 45.76-12.8 65.856z" />
<glyph unicode="&#xe95e;" glyph-name="touxiang1x" d="M96 800c0 35.346 28.654 64 64 64v0h704c35.346 0 64-28.654 64-64v0-704c0-35.346-28.654-64-64-64v0h-704c-35.346 0-64 28.654-64 64v0 704zM864 96v704h-704v-704h704zM512 416c88.366 0 160 71.634 160 160s-71.634 160-160 160v0c-88.366 0-160-71.634-160-160s71.634-160 160-160v0zM512 672c53.019 0 96-42.981 96-96s-42.981-96-96-96v0c-53.019 0-96 42.981-96 96s42.981 96 96 96v0zM736 231.68c-64.841 35.284-141.965 56.113-223.936 56.32h-0.064c-82.034-0.207-159.158-21.035-226.522-57.571l2.522 1.251v-71.68h-64v73.088c0 22.208 11.456 43.136 31.104 53.632 74.263 40.915 162.736 65.071 256.833 65.28h0.063c94.161-0.209 182.634-24.365 259.712-66.697l-2.816 1.417c19.648-10.496 31.104-31.36 31.104-53.632v-73.088h-64v71.68z" />
<glyph unicode="&#xe95f;" glyph-name="wanicon" d="M227.556 846.222h-199.111v-794.425h967.111v794.425h-146.29v-85.333h-621.71v85.333z" />
<glyph unicode="&#xe960;" glyph-name="lanicon" d="M28.444 758.841h967.111v-794.396h-967.111v794.396zM201.131 931.556h621.71v-172.686h-621.71v172.686z" />
<glyph unicode="&#xe961;" glyph-name="jiantou-icon" d="M469.333-64v860.843l-323.243-324.267-60.757 60.757 426.667 426.667 426.667-426.667-60.843-60.843-323.157 324.267v-860.757h-85.333z" />
<glyph unicode="&#xe962;" glyph-name="tianjia-icon" d="M512-64c-282.752 0-512 229.248-512 512s229.248 512 512 512 512-229.248 512-512-229.248-512-512-512zM512 896c-247.424 0-448-200.576-448-448s200.576-448 448-448 448 200.576 448 448-200.576 448-448 448zM704 416h-160v-160c0-17.673-14.327-32-32-32s-32 14.327-32 32v0 160h-160c-17.673 0-32 14.327-32 32s14.327 32 32 32v0h160v160c0 17.673 14.327 32 32 32s32-14.327 32-32v0-160h160c17.673 0 32-14.327 32-32s-14.327-32-32-32v0z" />
<glyph unicode="&#xe963;" glyph-name="xiaoxi-icon" d="M523.947 874.667c278.827 0 458.88-222.208 458.88-426.027 0-242.816-197.419-448-458.837-448-84.181 0-150.485 16.64-221.611 55.424l-88.619-50.219c-27.819-8.405-50.475-5.12-68.011 9.813-17.536 15.019-25.131 34.773-22.741 59.221 10.027 35.413 19.883 70.912 29.696 106.368-29.696 36.992-88.704 122.325-88.704 267.392 0 203.819 181.12 426.027 459.947 426.027zM522.667 810.667c-218.581 0-394.667-167.808-394.667-373.333 0-77.355 24.875-151.125 70.613-213.205l5.419-7.125 18.219-23.467-36.992-128.768c-0.019-0.041-0.030-0.089-0.030-0.139 0-0.12 0.062-0.226 0.156-0.287l0.001-0.001c0.054-0.037 0.12-0.059 0.192-0.059s0.138 0.022 0.193 0.060l-0.001-0.001 113.408 63.872 26.752-14.592c56.488-31.239 123.845-49.623 195.496-49.623 0.436 0 0.872 0.001 1.308 0.002h-0.068c218.581 0 394.667 167.765 394.667 373.333 0 205.525-176.085 373.333-394.667 373.333zM330.667 490.667c29.455 0 53.333-23.878 53.333-53.333s-23.878-53.333-53.333-53.333v0c-29.455 0-53.333 23.878-53.333 53.333s23.878 53.333 53.333 53.333v0zM513.536 490.667c29.455 0 53.333-23.878 53.333-53.333s-23.878-53.333-53.333-53.333v0c-29.455 0-53.333 23.878-53.333 53.333s23.878 53.333 53.333 53.333v0zM696.405 490.667c29.455 0 53.333-23.878 53.333-53.333s-23.878-53.333-53.333-53.333v0c-29.455 0-53.333 23.878-53.333 53.333s23.878 53.333 53.333 53.333v0z" />
</font>
</defs>
</svg>
